<svg width="64" height="64" viewBox="0 0 64 64" fill="none" xmlns="http://www.w3.org/2000/svg">
<g clip-path="url(#clip0)">
<path d="M63.8766 34.9567C63.302 29.1769 60.7198 23.7279 56.6055 19.6135C53.0895 16.0976 48.7859 13.8382 44.2576 12.8335V9.65746C46.1071 9.19733 47.4819 7.52318 47.4819 5.53327C47.4819 3.18973 45.5753 1.2832 43.2318 1.2832H34.2317C31.8881 1.2832 29.9816 3.18973 29.9816 5.53327C29.9816 7.52305 31.3564 9.1972 33.2058 9.65746V12.8424C28.6913 13.8513 24.402 16.1076 20.896 19.6136C20.1287 20.3809 19.4212 21.1858 18.7735 22.0223C18.7422 22.0199 18.7108 22.0175 18.6788 22.0175H9.77103C9.08077 22.0175 8.52101 22.5772 8.52101 23.2675C8.52101 23.9579 9.08077 24.5176 9.77103 24.5176H17.0726C16.1561 26.052 15.4171 27.6634 14.8546 29.3221H1.25002C0.559759 29.3221 0 29.8818 0 30.5722C0 31.2626 0.559759 31.8222 1.25002 31.8222H14.1482C13.788 33.4036 13.5812 35.013 13.5278 36.6269H8.00012C7.30986 36.6269 6.75011 37.1865 6.75011 37.8769C6.75011 38.5673 7.30986 39.1269 8.00012 39.1269H13.5677C13.6732 40.7449 13.9333 42.3545 14.3482 43.9316H6.2501C5.55984 43.9316 5.00008 44.4913 5.00008 45.1816C5.00008 45.872 5.55984 46.4317 6.2501 46.4317H15.146C16.3723 49.6756 18.2887 52.716 20.896 55.3233C25.0143 59.4416 30.4688 62.0244 36.2547 62.596C37.0805 62.6775 37.9068 62.7179 38.7321 62.7179C43.6099 62.7179 48.4258 61.3063 52.5121 58.6452C53.0906 58.2685 53.2542 57.4941 52.8774 56.9156C52.5007 56.3371 51.7263 56.1734 51.1478 56.5502C42.203 62.3749 30.2237 61.1155 22.6637 53.5555C13.7933 44.6851 13.7933 30.252 22.6637 21.3815C31.534 12.5113 45.9671 12.5113 54.8376 21.3815C62.3876 28.9316 63.6539 40.9007 57.8484 49.8411C57.4724 50.4201 57.637 51.1944 58.2159 51.5702C58.7952 51.9463 59.5692 51.7816 59.9451 51.2026C63.0469 46.4257 64.4431 40.6562 63.8766 34.9567ZM32.4816 5.53339C32.4816 4.56838 33.2666 3.78337 34.2317 3.78337H43.2318C44.1968 3.78337 44.9818 4.56838 44.9818 5.53339C44.9818 6.49841 44.1968 7.28342 43.2318 7.28342H43.0075H34.4558H34.2317C33.2666 7.28342 32.4816 6.49829 32.4816 5.53339ZM35.7058 12.4126V9.78346H41.7575V12.4081C39.748 12.1691 37.715 12.1706 35.7058 12.4126Z" fill="#76C27E"/>
<path d="M55.7222 53.1885C55.3922 53.1885 55.0709 53.3222 54.8385 53.5547C54.6048 53.7872 54.4722 54.1097 54.4722 54.4385C54.4722 54.7672 54.6048 55.0897 54.8385 55.3222C55.0709 55.556 55.3923 55.6885 55.7222 55.6885C56.0509 55.6885 56.3722 55.556 56.6059 55.3222C56.8384 55.0897 56.9722 54.7672 56.9722 54.4385C56.9722 54.1097 56.8385 53.7872 56.6059 53.5547C56.3722 53.3222 56.0508 53.1885 55.7222 53.1885Z" fill="#76C27E"/>
<path d="M38.7508 18.0771C28.0584 18.0771 19.3594 26.776 19.3594 37.4686C19.3594 48.1611 28.0584 56.86 38.7508 56.86C49.4432 56.86 58.1422 48.1611 58.1422 37.4686C58.1422 26.776 49.4432 18.0771 38.7508 18.0771ZM38.7508 54.36C29.4368 54.36 21.8594 46.7825 21.8594 37.4686C21.8594 28.1547 29.4368 20.5772 38.7508 20.5772C48.0648 20.5772 55.6422 28.1547 55.6422 37.4686C55.6422 46.7825 48.0648 54.36 38.7508 54.36Z" fill="#76C27E"/>
<path d="M46.6579 27.7938L40.4666 33.9851C39.9488 33.7291 39.3665 33.5844 38.7508 33.5844C38.1351 33.5844 37.5528 33.7291 37.035 33.9851L34.2641 31.2141C33.7759 30.726 32.9846 30.726 32.4962 31.2141C32.0081 31.7023 32.0081 32.4938 32.4962 32.9819L35.2671 35.7528C35.011 36.2706 34.8665 36.853 34.8665 37.4686C34.8665 39.6104 36.6089 41.3529 38.7508 41.3529C40.8927 41.3529 42.6351 39.6104 42.6351 37.4686C42.6351 36.853 42.4905 36.2706 42.2345 35.7528L48.2441 29.7432L48.4257 29.5616C48.9138 29.0735 48.9138 28.282 48.4257 27.7938C47.9376 27.3057 47.1463 27.3057 46.6579 27.7938ZM38.7508 38.853C37.9876 38.853 37.3665 38.232 37.3665 37.4687C37.3665 36.7055 37.9876 36.0845 38.7508 36.0845C39.5141 36.0845 40.1351 36.7055 40.1351 37.4687C40.1351 38.232 39.5141 38.853 38.7508 38.853Z" fill="#76C27E"/>
<path d="M52.1159 36.2334H50.9578C50.2675 36.2334 49.7078 36.793 49.7078 37.4834C49.7078 38.1738 50.2675 38.7334 50.9578 38.7334H52.1159C52.8061 38.7334 53.3659 38.1738 53.3659 37.4834C53.3659 36.793 52.8061 36.2334 52.1159 36.2334Z" fill="#76C27E"/>
<path d="M26.5437 36.2031H25.3857C24.6955 36.2031 24.1357 36.7628 24.1357 37.4531C24.1357 38.1435 24.6955 38.7031 25.3857 38.7031H26.5437C27.234 38.7031 27.7937 38.1435 27.7937 37.4531C27.7937 36.7628 27.234 36.2031 26.5437 36.2031Z" fill="#76C27E"/>
<path d="M38.7659 26.5115C39.4561 26.5115 40.0159 25.9519 40.0159 25.2615V24.1035C40.0159 23.4131 39.4561 22.8535 38.7659 22.8535C38.0756 22.8535 37.5159 23.4131 37.5159 24.1035V25.2615C37.5159 25.9519 38.0756 26.5115 38.7659 26.5115Z" fill="#76C27E"/>
<path d="M38.7354 48.4258C38.0451 48.4258 37.4854 48.9854 37.4854 49.6758V50.8338C37.4854 51.5242 38.0451 52.0838 38.7354 52.0838C39.4256 52.0838 39.9854 51.5242 39.9854 50.8338V49.6758C39.9854 48.9854 39.4256 48.4258 38.7354 48.4258Z" fill="#76C27E"/>
<path d="M1.25 43.9307C0.92125 43.9307 0.59875 44.0644 0.36625 44.2969C0.13375 44.5294 0 44.8519 0 45.1807C0 45.5107 0.133625 45.8319 0.36625 46.0644C0.598875 46.2969 0.92125 46.4307 1.25 46.4307C1.57875 46.4307 1.90125 46.2969 2.13363 46.0644C2.36613 45.8319 2.5 45.5094 2.5 45.1807C2.5 44.8519 2.36625 44.5294 2.13363 44.2969C1.90125 44.0644 1.57875 43.9307 1.25 43.9307Z" fill="#76C27E"/>
</g>
<defs>
<clipPath id="clip0">
<rect width="64" height="64" fill="white"/>
</clipPath>
</defs>
</svg>
