<svg width="12" height="13" viewBox="0 0 12 13" fill="none" xmlns="http://www.w3.org/2000/svg">
<g clip-path="url(#clip0)">
<path d="M11.6786 4.25228H0.321429C0.144643 4.25228 0 4.12 0 3.95833V3.0765C0 2.42737 0.575893 1.90072 1.28571 1.90072H2.57143V0.626953C2.57143 0.465283 2.71607 0.333008 2.89286 0.333008H3.96429C4.14107 0.333008 4.28571 0.465283 4.28571 0.626953V1.90072H7.71429V0.626953C7.71429 0.465283 7.85893 0.333008 8.03571 0.333008H9.10714C9.28393 0.333008 9.42857 0.465283 9.42857 0.626953V1.90072H10.7143C11.4241 1.90072 12 2.42737 12 3.0765V3.95833C12 4.12 11.8554 4.25228 11.6786 4.25228ZM0.321429 5.03613H11.6786C11.8554 5.03613 12 5.16841 12 5.33008V11.6989C12 12.348 11.4241 12.8747 10.7143 12.8747H1.28571C0.575893 12.8747 0 12.348 0 11.6989V5.33008C0 5.16841 0.144643 5.03613 0.321429 5.03613ZM3.42857 10.0332C3.42857 9.87153 3.28393 9.73926 3.10714 9.73926H2.03571C1.85893 9.73926 1.71429 9.87153 1.71429 10.0332V11.013C1.71429 11.1747 1.85893 11.307 2.03571 11.307H3.10714C3.28393 11.307 3.42857 11.1747 3.42857 11.013V10.0332ZM3.42857 6.89779C3.42857 6.73612 3.28393 6.60384 3.10714 6.60384H2.03571C1.85893 6.60384 1.71429 6.73612 1.71429 6.89779V7.8776C1.71429 8.03927 1.85893 8.17155 2.03571 8.17155H3.10714C3.28393 8.17155 3.42857 8.03927 3.42857 7.8776V6.89779ZM6.85714 10.0332C6.85714 9.87153 6.7125 9.73926 6.53571 9.73926H5.46429C5.2875 9.73926 5.14286 9.87153 5.14286 10.0332V11.013C5.14286 11.1747 5.2875 11.307 5.46429 11.307H6.53571C6.7125 11.307 6.85714 11.1747 6.85714 11.013V10.0332ZM6.85714 6.89779C6.85714 6.73612 6.7125 6.60384 6.53571 6.60384H5.46429C5.2875 6.60384 5.14286 6.73612 5.14286 6.89779V7.8776C5.14286 8.03927 5.2875 8.17155 5.46429 8.17155H6.53571C6.7125 8.17155 6.85714 8.03927 6.85714 7.8776V6.89779ZM10.2857 10.0332C10.2857 9.87153 10.1411 9.73926 9.96429 9.73926H8.89286C8.71607 9.73926 8.57143 9.87153 8.57143 10.0332V11.013C8.57143 11.1747 8.71607 11.307 8.89286 11.307H9.96429C10.1411 11.307 10.2857 11.1747 10.2857 11.013V10.0332ZM10.2857 6.89779C10.2857 6.73612 10.1411 6.60384 9.96429 6.60384H8.89286C8.71607 6.60384 8.57143 6.73612 8.57143 6.89779V7.8776C8.57143 8.03927 8.71607 8.17155 8.89286 8.17155H9.96429C10.1411 8.17155 10.2857 8.03927 10.2857 7.8776V6.89779Z" fill="#866EE8"/>
</g>
<defs>
<clipPath id="clip0">
<rect width="12" height="12.5417" fill="white" transform="translate(0 0.333008)"/>
</clipPath>
</defs>
</svg>
