<svg width="12" height="12" viewBox="0 0 12 12" fill="none" xmlns="http://www.w3.org/2000/svg">
<path d="M11.6485 0.351827C11.1793 -0.117299 10.4161 -0.117252 9.947 0.351827L6.72353 3.57524L6.6545 3.50622C6.05504 2.90676 5.09921 2.84818 4.43108 3.37007L0.14245 6.7196C0.0616609 6.78269 0.0118092 6.87742 0.0055514 6.97975C-0.00070643 7.08208 0.0371921 7.18218 0.109684 7.25468L4.75022 11.8952C4.81754 11.9625 4.90866 12.0001 5.00323 12.0001C5.0105 12.0001 5.01781 11.9998 5.02512 11.9993C5.12745 11.9931 5.22218 11.9432 5.28528 11.8625L8.6348 7.57381C9.15665 6.90573 9.09808 5.94986 8.4986 5.3504L8.42503 5.2768L11.6485 2.05332C12.1176 1.58422 12.1176 0.820931 11.6485 0.351827ZM4.97026 11.103L3.92693 10.0597L5.20967 8.64826C5.34258 8.50201 5.33178 8.27574 5.18553 8.14276C5.03926 8.00986 4.81292 8.02066 4.68 8.16691L3.42026 9.55299L2.45189 8.58466L3.83799 7.32489C3.98424 7.19196 3.99504 6.96562 3.86213 6.81937C3.72917 6.67314 3.5029 6.66229 3.3566 6.79523L1.94522 8.07796L0.901899 7.03464L4.28783 4.39014L7.6148 7.71706L4.97026 11.103ZM8.07073 7.13322L8.05858 7.14876L4.85612 3.94626L4.87166 3.93414C5.25526 3.63449 5.80418 3.66812 6.14839 4.01232L6.47045 4.33438L7.66588 5.52979L7.9925 5.85644C8.33675 6.20067 8.37035 6.74958 8.07073 7.13322ZM11.1424 1.54721L7.91893 4.77065L7.22961 4.08132L10.453 0.857914C10.6431 0.667859 10.9523 0.667906 11.1424 0.857914C11.3324 1.04797 11.3324 1.35716 11.1424 1.54721Z" fill="white"/>
</svg>
