<svg width="24" height="25" viewBox="0 0 24 25" fill="none" xmlns="http://www.w3.org/2000/svg">
<g clip-path="url(#clip0)">
<path d="M11.9998 0.775391C5.38278 0.775391 0 6.18061 0 12.8245C0 19.4683 5.38278 24.8736 11.9998 24.8736C18.6167 24.8736 24 19.4683 24 12.8245C24 6.18061 18.6167 0.775391 11.9998 0.775391ZM11.9998 23.2933C6.2508 23.2933 1.5738 18.5969 1.5738 12.8245C1.5738 7.05194 6.25074 2.35569 11.9998 2.35569C17.7488 2.35569 22.426 7.052 22.426 12.8245C22.4261 18.5969 17.7487 23.2933 11.9998 23.2933Z" fill="#D2D2D2"/>
<path d="M16.344 8.87997L10.1562 15.0928L7.65485 12.5818C7.34747 12.2735 6.84953 12.2734 6.54215 12.582C6.23465 12.8907 6.23465 13.3908 6.54215 13.6994L9.59993 16.7692C9.75359 16.9233 9.95489 17.0004 10.1562 17.0004C10.3575 17.0004 10.5593 16.9233 10.7129 16.769C10.7134 16.7683 10.7138 16.7677 10.7145 16.7669L17.4567 9.99722C17.7642 9.68876 17.7642 9.18836 17.4567 8.87991C17.1494 8.57127 16.6511 8.57127 16.344 8.87997Z" fill="#D2D2D2"/>
</g>
<defs>
<clipPath id="clip0">
<rect width="24" height="24.0982" fill="white" transform="translate(0 0.775391)"/>
</clipPath>
</defs>
</svg>
