<svg width="71" height="15" viewBox="0 0 71 15" fill="none" xmlns="http://www.w3.org/2000/svg">
<path d="M44.1219 9.54401L43.4 10.1876C43.2195 10.2734 43.0841 10.3592 42.9036 10.445C42.4073 10.6595 41.9109 10.7024 41.4597 10.7024C40.9634 10.7024 40.2414 10.6595 39.4744 10.1447C38.3914 9.4153 37.9402 8.21401 37.9402 7.14143C37.9402 4.91046 39.8353 3.83789 41.4146 3.83789C41.9561 3.83789 42.4975 3.9666 42.9488 4.22402C43.7158 4.69595 43.8963 5.29659 43.9866 5.63982L40.4219 7.01273L39.2488 7.09854C39.6097 8.90047 40.9183 9.97304 42.3622 9.97304C43.0841 9.97304 43.6256 9.75853 44.1219 9.54401C44.1219 9.50111 44.2122 9.45821 44.1219 9.54401ZM42.0012 5.89724C42.2719 5.81143 42.4524 5.72563 42.4524 5.51111C42.4524 4.95337 41.7756 4.26692 40.9634 4.26692C40.3768 4.26692 39.2488 4.69596 39.2488 6.24047C39.2488 6.49789 39.2939 6.75531 39.2939 7.01273L42.0012 5.89724Z" fill="#333333"/>
<path d="M36.7219 9.41489C36.7219 9.97263 36.8122 10.0584 37.3085 10.1013C37.5793 10.1442 37.8049 10.1442 38.0756 10.1871L37.5341 10.4875H34.8719C35.2329 10.0584 35.278 10.0155 35.278 9.7152V9.41489V0.877149H34.1049L35.2329 0.362305H37.3988C36.9475 0.619724 36.8122 0.79134 36.7219 1.26328V9.41489Z" fill="#333333"/>
<path d="M32.6158 4.52357C32.9768 4.78099 33.6987 5.38163 33.6987 6.45422C33.6987 7.5268 33.067 7.99872 32.4353 8.47066C32.2548 8.64227 32.0292 8.85679 32.0292 9.15711C32.0292 9.45744 32.2548 9.62905 32.4353 9.75776L32.9768 10.1439C33.6536 10.6587 34.2402 11.1736 34.2402 12.1603C34.2402 13.4903 32.8865 14.8632 30.2695 14.8632C28.1036 14.8632 27.0207 13.8765 27.0207 12.8039C27.0207 12.289 27.2914 11.5597 28.1939 11.0449C29.1414 10.4871 30.4048 10.4442 31.0817 10.4013C30.8561 10.1439 30.6304 9.88647 30.6304 9.41453C30.6304 9.15712 30.7207 9.0284 30.7658 8.85678C30.5853 8.85678 30.45 8.89969 30.2695 8.89969C28.6902 8.89969 27.7878 7.78421 27.7878 6.66873C27.7878 6.02518 28.1036 5.29583 28.7353 4.73809C29.5926 4.05163 30.6304 3.96582 31.4426 3.96582H34.556L33.6085 4.48066L32.6158 4.52357ZM31.5329 10.8732C31.3975 10.8732 31.3524 10.8732 31.1719 10.8732C31.0365 10.8732 30.2243 10.9161 29.5926 11.0878C29.2768 11.2165 28.2841 11.5597 28.2841 12.5465C28.2841 13.5762 29.3219 14.3055 30.9463 14.3055C32.3902 14.3055 33.1573 13.662 33.1573 12.761C33.1573 12.0316 32.6609 11.6455 31.5329 10.8732ZM31.9841 8.17034C32.3451 7.82712 32.3451 7.39808 32.3451 7.14066C32.3451 6.11098 31.7134 4.52357 30.45 4.52357C30.0439 4.52357 29.6378 4.69517 29.4121 4.99549C29.1414 5.29582 29.0963 5.68195 29.0963 6.06808C29.0963 7.01195 29.6829 8.59938 30.9914 8.59938C31.3073 8.55647 31.7134 8.38486 31.9841 8.17034Z" fill="#333333"/>
<path d="M23.2756 10.6594C20.8841 10.6594 19.5756 8.90041 19.5756 7.27009C19.5756 5.38234 21.1999 3.79492 23.5012 3.79492C25.7121 3.79492 27.1109 5.42524 27.1109 7.18427C27.1109 8.9004 25.7121 10.6594 23.2756 10.6594ZM25.1256 9.50105C25.4865 9.02911 25.5768 8.47138 25.5768 7.91363C25.5768 6.66944 24.9451 4.22395 23.0951 4.22395C22.5987 4.22395 22.1024 4.39557 21.7414 4.69589C21.1548 5.21073 21.0646 5.81138 21.0646 6.45493C21.0646 7.87073 21.7865 10.1875 23.6365 10.1875C24.178 10.2304 24.8097 9.97298 25.1256 9.50105Z" fill="#333333"/>
<path d="M15.2439 10.6594C12.8524 10.6594 11.589 8.90041 11.589 7.27009C11.589 5.38234 13.2134 3.79492 15.5146 3.79492C17.7256 3.79492 19.1244 5.42524 19.1244 7.18427C19.0792 8.9004 17.6805 10.6594 15.2439 10.6594ZM17.139 9.50105C17.5 9.02911 17.5902 8.47138 17.5902 7.91363C17.5902 6.66944 16.9585 4.22395 15.1085 4.22395C14.6122 4.22395 14.1158 4.39557 13.7549 4.69589C13.1683 5.21073 13.078 5.81138 13.078 6.45493C13.078 7.87073 13.8 10.1875 15.65 10.1875C16.1914 10.2304 16.778 9.97298 17.139 9.50105Z" fill="#333333"/>
<path d="M10.5963 10.1871L8.56583 10.6161C7.75364 10.7448 7.03168 10.8306 6.21948 10.8306C2.339 10.8306 0.849976 8.08483 0.849976 5.98257C0.849976 3.36548 2.9707 0.962891 6.58045 0.962891C7.34753 0.962891 8.06949 1.0487 8.74632 1.26322C9.78412 1.56354 10.2805 1.90677 10.5963 2.12128L9.42315 3.19386L8.9268 3.27966L9.28777 2.76483C8.79143 2.3358 7.93412 1.52064 6.26461 1.52064C4.05363 1.52064 2.33899 3.15095 2.33899 5.46773C2.33899 7.99902 4.27924 10.3587 7.34753 10.3587C8.24997 10.3587 8.70119 10.1871 9.15241 10.0155V7.87031L7.03167 7.99902L8.15972 7.44128H11.1378L10.7768 7.7845C10.6866 7.87031 10.6866 7.87031 10.6414 7.99902C10.6414 8.12773 10.5963 8.51386 10.5963 8.64257V10.1871Z" fill="#333333"/>
<path d="M48.4988 9.58582V13.2326H47.7317V3.92259H48.4988V4.99517C48.9951 4.30872 49.8975 3.75098 50.9353 3.75098C52.8305 3.75098 54.0939 5.12388 54.0939 7.26905C54.0939 9.41421 52.8305 10.7871 50.9353 10.7871C49.9427 10.83 49.0402 10.3581 48.4988 9.58582ZM53.2817 7.31195C53.2817 5.68163 52.3793 4.43743 50.8 4.43743C49.8073 4.43743 48.8597 5.16679 48.4536 5.81034V8.77066C48.8597 9.41421 49.8073 10.1865 50.8 10.1865C52.3793 10.1865 53.2817 8.94227 53.2817 7.31195Z" fill="#333333"/>
<path d="M55.1317 10.6586V1.34863H55.8988V10.6586H55.1317Z" fill="#333333"/>
<path d="M64.4719 12.6323C64.6524 12.7181 64.9231 12.761 65.1036 12.761C65.5549 12.761 65.9158 12.5894 66.1866 11.9458L66.728 10.7445L63.7049 3.96582H64.5622L67.1341 9.84357L69.7061 3.96582H70.5634L66.9085 12.1603C66.5475 13.0184 65.9158 13.4045 65.1036 13.4045C64.878 13.4045 64.517 13.3616 64.3366 13.3187L64.4719 12.6323Z" fill="#333333"/>
<path d="M62.2158 10.6585C62.1707 10.444 62.1256 10.2295 62.0805 10.0579C62.0353 9.88627 62.0353 9.71465 62.0353 9.54304C61.7646 9.92917 61.4036 10.2295 60.9524 10.444C60.5012 10.7014 60.05 10.7872 59.4183 10.7872C58.6963 10.7872 58.1097 10.6156 57.7036 10.2724C57.2975 9.92917 57.0719 9.45723 57.0719 8.85658C57.0719 8.25594 57.3878 7.78401 57.9744 7.39788C58.561 7.01175 59.328 6.84014 60.2756 6.84014H62.0353V5.98208C62.0353 5.51014 61.8548 5.12401 61.539 4.86659C61.178 4.60917 60.7268 4.43756 60.0951 4.43756C59.5085 4.43756 59.0573 4.56626 58.6963 4.82368C58.3353 5.0811 58.1548 5.38143 58.1548 5.76756H57.3878V5.72465C57.3427 5.20981 57.6134 4.78078 58.1097 4.39465C58.6061 4.00852 59.2829 3.83691 60.1402 3.83691C60.9524 3.83691 61.6292 4.00852 62.1707 4.39465C62.6671 4.78078 62.9378 5.29563 62.9378 6.02498V9.32852C62.9378 9.58594 62.9378 9.80046 62.9829 10.015C63.028 10.2295 63.0731 10.444 63.1183 10.7014L62.2158 10.6585ZM59.5085 10.1437C60.1402 10.1437 60.6366 10.015 61.0878 9.71465C61.539 9.45723 61.9 9.0711 62.0353 8.68497V7.39788H60.2305C59.5536 7.39788 58.9671 7.52659 58.5158 7.82691C58.0646 8.12723 57.839 8.47045 57.839 8.85658C57.839 9.24271 57.9744 9.54304 58.2451 9.75755C58.6512 10.015 59.0122 10.1437 59.5085 10.1437Z" fill="#333333"/>
</svg>
