<svg width="32" height="32" viewBox="0 0 32 32" fill="none" xmlns="http://www.w3.org/2000/svg">
<g clip-path="url(#clip0)">
<path d="M7.77817 7.78335C3.48136 12.0802 3.48136 19.0429 7.77817 23.3397C12.075 27.6365 19.0377 27.6365 23.3345 23.3397C27.6313 19.0429 27.6313 12.0802 23.3345 7.78335C19.0377 3.48653 12.075 3.48654 7.77817 7.78335ZM21.412 13.7895C21.7067 13.7895 21.9451 14.0278 21.9451 14.3227L21.942 16.8036C21.942 17.0983 21.7036 17.3367 21.4088 17.3367L17.3127 17.3179L17.3284 21.4171C17.3284 21.7119 17.0901 21.9503 16.7952 21.9503L14.3143 21.9471C14.0195 21.9472 13.7812 21.7088 13.7811 21.4139L13.8 17.3179L9.70076 17.3336C9.40596 17.3336 9.1676 17.0952 9.16757 16.8004L9.16759 14.3164C9.16758 14.0216 9.40593 13.7832 9.70079 13.7832L13.8 13.8052L13.7843 9.70594C13.7843 9.41113 14.0226 9.17278 14.3175 9.17275L16.8015 9.17277C17.0963 9.17277 17.3346 9.41113 17.3347 9.70597L17.3127 13.8052L21.412 13.7895Z" fill="#866EE8"/>
</g>
<defs>
<clipPath id="clip0">
<rect width="22" height="22" fill="white" transform="translate(0 15.5615) rotate(-45)"/>
</clipPath>
</defs>
</svg>
