<svg width="24" height="25" viewBox="0 0 24 25" fill="none" xmlns="http://www.w3.org/2000/svg">
<g clip-path="url(#clip0)">
<path d="M11.9998 0.613281C5.38278 0.613281 0 6.0185 0 12.6624C0 19.3062 5.38278 24.7114 11.9998 24.7114C18.6167 24.7114 24 19.3062 24 12.6624C24 6.0185 18.6167 0.613281 11.9998 0.613281ZM11.9998 23.1312C6.2508 23.1312 1.5738 18.4348 1.5738 12.6624C1.5738 6.88983 6.25074 2.19358 11.9998 2.19358C17.7488 2.19358 22.426 6.88989 22.426 12.6624C22.4261 18.4348 17.7487 23.1312 11.9998 23.1312Z" fill="#866EE8"/>
<path d="M12.9844 15.2744H11.3516L11.1719 7.25098H13.1719L12.9844 15.2744ZM11.1172 17.7275C11.1172 17.4307 11.2135 17.1859 11.4062 16.9932C11.599 16.7952 11.862 16.6963 12.1953 16.6963C12.5286 16.6963 12.7917 16.7952 12.9844 16.9932C13.1771 17.1859 13.2734 17.4307 13.2734 17.7275C13.2734 18.014 13.1797 18.2536 12.9922 18.4463C12.8047 18.639 12.5391 18.7354 12.1953 18.7354C11.8516 18.7354 11.5859 18.639 11.3984 18.4463C11.2109 18.2536 11.1172 18.014 11.1172 17.7275Z" fill="#866EE8"/>
</g>
<defs>
<clipPath id="clip0">
<rect width="24" height="24.0982" fill="white" transform="translate(0 0.613281)"/>
</clipPath>
</defs>
</svg>
