<svg xmlns="http://www.w3.org/2000/svg">
    <symbol id='plus' viewBox="0 0 32 32">
        <g clip-path="url(#clip0)">
            <path d="M7.77817 7.78335C3.48136 12.0802 3.48136 19.0429 7.77817 23.3397C12.075 27.6365 19.0377 27.6365 23.3345 23.3397C27.6313 19.0429 27.6313 12.0802 23.3345 7.78335C19.0377 3.48653 12.075 3.48654 7.77817 7.78335ZM21.412 13.7895C21.7067 13.7895 21.9451 14.0278 21.9451 14.3227L21.942 16.8036C21.942 17.0983 21.7036 17.3367 21.4088 17.3367L17.3127 17.3179L17.3284 21.4171C17.3284 21.7119 17.0901 21.9503 16.7952 21.9503L14.3143 21.9471C14.0195 21.9472 13.7812 21.7088 13.7811 21.4139L13.8 17.3179L9.70076 17.3336C9.40596 17.3336 9.1676 17.0952 9.16757 16.8004L9.16759 14.3164C9.16758 14.0216 9.40593 13.7832 9.70079 13.7832L13.8 13.8052L13.7843 9.70594C13.7843 9.41113 14.0226 9.17278 14.3175 9.17275L16.8015 9.17277C17.0963 9.17277 17.3346 9.41113 17.3347 9.70597L17.3127 13.8052L21.412 13.7895Z"/>
        </g>
    </symbol> 

    <symbol id='arr' viewBox="0 0 10 6">
        <path d="M4.61137 5.75831L0.160979 1.4859C-0.0536598 1.27985 -0.0536598 0.945787 0.160979 0.739756L0.680047 0.241449C0.894319 0.0357473 1.24159 0.0353516 1.45637 0.24057L5 3.62654L8.54362 0.24057C8.75841 0.0353516 9.10569 0.0357473 9.31994 0.241449L9.83903 0.739756C10.0537 0.945808 10.0537 1.27987 9.83903 1.4859L5.38866 5.75831C5.174 5.96435 4.82603 5.96435 4.61137 5.75831Z"/>
    </symbol> 
    <symbol id='settings' viewBox="0 0 10 6">
        <path d="M19.3735 12.5568L21.2637 13.6479C21.4796 13.7725 21.5799 14.0302 21.5059 14.2682C21.0149 15.8491 20.1766 17.2774 19.0802 18.4636C18.9982 18.5524 18.8883 18.6107 18.7687 18.6288C18.6492 18.647 18.527 18.624 18.4223 18.5635L16.5335 17.4726C15.7388 18.1536 14.8252 18.6818 13.8385 19.0308V21.2123C13.8385 21.3333 13.7974 21.4506 13.7218 21.5452C13.6462 21.6396 13.5407 21.7055 13.4227 21.732C11.8722 22.0802 10.207 22.0982 8.57827 21.7324C8.33476 21.6776 8.16117 21.462 8.16117 21.2124V19.0308C7.1746 18.6819 6.26094 18.1536 5.46625 17.4726L3.57745 18.5635C3.47271 18.624 3.35054 18.647 3.23099 18.6288C3.11145 18.6107 3.00163 18.5524 2.91958 18.4636C1.82322 17.2774 0.984871 15.8491 0.493864 14.2682C0.419925 14.0302 0.520123 13.7725 0.735996 13.6479L2.62626 12.5568C2.4364 11.5277 2.4364 10.4724 2.62626 9.44322L0.736044 8.35209C0.520167 8.22752 0.41997 7.96984 0.493909 7.73183C0.984919 6.15092 1.82322 4.7227 2.91963 3.53647C3.00167 3.44765 3.11149 3.38938 3.23104 3.3712C3.35059 3.35304 3.47276 3.37607 3.5775 3.4365L5.4663 4.5274C6.261 3.84649 7.17467 3.31823 8.16124 2.96922V0.787724C8.16124 0.666735 8.20242 0.549349 8.27804 0.454884C8.3536 0.360418 8.45913 0.294499 8.57717 0.267974C10.1276 -0.0802101 11.7928 -0.0982184 13.4215 0.267664C13.665 0.322353 13.8386 0.53805 13.8386 0.787634V2.96917C14.8252 3.31817 15.7389 3.84642 16.5335 4.52736L18.4224 3.43645C18.5271 3.37602 18.6493 3.35299 18.7688 3.37116C18.8884 3.38933 18.9982 3.44761 19.0802 3.53643C20.1766 4.72265 21.0149 6.15088 21.506 7.73176C21.5799 7.96977 21.4797 8.22745 21.2638 8.35209L19.3735 9.44316C19.5634 10.4723 19.5634 11.5277 19.3735 12.5568ZM14.5482 11C14.5482 9.04344 12.9565 7.45161 10.9999 7.45161C9.0433 7.45161 7.45153 9.04344 7.45153 11C7.45153 12.9566 9.0433 14.5484 10.9999 14.5484C12.9565 14.5484 14.5482 12.9566 14.5482 11Z" fill="#D2D2D2"/>
    </symbol> 
</svg>