<svg xmlns="http://www.w3.org/2000/svg">

    <symbol id='add-icon' width="64" height="64" viewBox="0 0 64 64">
        <g clip-path="url(#clip0)">
            <path d="M63.8766 34.9567C63.302 29.1769 60.7198 23.7279 56.6055 19.6135C53.0895 16.0976 48.7859 13.8382 44.2576 12.8335V9.65746C46.1071 9.19733 47.4819 7.52318 47.4819 5.53327C47.4819 3.18973 45.5753 1.2832 43.2318 1.2832H34.2317C31.8881 1.2832 29.9816 3.18973 29.9816 5.53327C29.9816 7.52305 31.3564 9.1972 33.2058 9.65746V12.8424C28.6913 13.8513 24.402 16.1076 20.896 19.6136C20.1287 20.3809 19.4212 21.1858 18.7735 22.0223C18.7422 22.0199 18.7108 22.0175 18.6788 22.0175H9.77103C9.08077 22.0175 8.52101 22.5772 8.52101 23.2675C8.52101 23.9579 9.08077 24.5176 9.77103 24.5176H17.0726C16.1561 26.052 15.4171 27.6634 14.8546 29.3221H1.25002C0.559759 29.3221 0 29.8818 0 30.5722C0 31.2626 0.559759 31.8222 1.25002 31.8222H14.1482C13.788 33.4036 13.5812 35.013 13.5278 36.6269H8.00012C7.30986 36.6269 6.75011 37.1865 6.75011 37.8769C6.75011 38.5673 7.30986 39.1269 8.00012 39.1269H13.5677C13.6732 40.7449 13.9333 42.3545 14.3482 43.9316H6.2501C5.55984 43.9316 5.00008 44.4913 5.00008 45.1816C5.00008 45.872 5.55984 46.4317 6.2501 46.4317H15.146C16.3723 49.6756 18.2887 52.716 20.896 55.3233C25.0143 59.4416 30.4688 62.0244 36.2547 62.596C37.0805 62.6775 37.9068 62.7179 38.7321 62.7179C43.6099 62.7179 48.4258 61.3063 52.5121 58.6452C53.0906 58.2685 53.2542 57.4941 52.8774 56.9156C52.5007 56.3371 51.7263 56.1734 51.1478 56.5502C42.203 62.3749 30.2237 61.1155 22.6637 53.5555C13.7933 44.6851 13.7933 30.252 22.6637 21.3815C31.534 12.5113 45.9671 12.5113 54.8376 21.3815C62.3876 28.9316 63.6539 40.9007 57.8484 49.8411C57.4724 50.4201 57.637 51.1944 58.2159 51.5702C58.7952 51.9463 59.5692 51.7816 59.9451 51.2026C63.0469 46.4257 64.4431 40.6562 63.8766 34.9567ZM32.4816 5.53339C32.4816 4.56838 33.2666 3.78337 34.2317 3.78337H43.2318C44.1968 3.78337 44.9818 4.56838 44.9818 5.53339C44.9818 6.49841 44.1968 7.28342 43.2318 7.28342H43.0075H34.4558H34.2317C33.2666 7.28342 32.4816 6.49829 32.4816 5.53339ZM35.7058 12.4126V9.78346H41.7575V12.4081C39.748 12.1691 37.715 12.1706 35.7058 12.4126Z" />
            <path d="M55.7222 53.1885C55.3922 53.1885 55.0709 53.3222 54.8385 53.5547C54.6048 53.7872 54.4722 54.1097 54.4722 54.4385C54.4722 54.7672 54.6048 55.0897 54.8385 55.3222C55.0709 55.556 55.3923 55.6885 55.7222 55.6885C56.0509 55.6885 56.3722 55.556 56.6059 55.3222C56.8384 55.0897 56.9722 54.7672 56.9722 54.4385C56.9722 54.1097 56.8385 53.7872 56.6059 53.5547C56.3722 53.3222 56.0508 53.1885 55.7222 53.1885Z" />
            <path d="M38.7508 18.0771C28.0584 18.0771 19.3594 26.776 19.3594 37.4686C19.3594 48.1611 28.0584 56.86 38.7508 56.86C49.4432 56.86 58.1422 48.1611 58.1422 37.4686C58.1422 26.776 49.4432 18.0771 38.7508 18.0771ZM38.7508 54.36C29.4368 54.36 21.8594 46.7825 21.8594 37.4686C21.8594 28.1547 29.4368 20.5772 38.7508 20.5772C48.0648 20.5772 55.6422 28.1547 55.6422 37.4686C55.6422 46.7825 48.0648 54.36 38.7508 54.36Z" />
            <path d="M46.6579 27.7938L40.4666 33.9851C39.9488 33.7291 39.3665 33.5844 38.7508 33.5844C38.1351 33.5844 37.5528 33.7291 37.035 33.9851L34.2641 31.2141C33.7759 30.726 32.9846 30.726 32.4962 31.2141C32.0081 31.7023 32.0081 32.4938 32.4962 32.9819L35.2671 35.7528C35.011 36.2706 34.8665 36.853 34.8665 37.4686C34.8665 39.6104 36.6089 41.3529 38.7508 41.3529C40.8927 41.3529 42.6351 39.6104 42.6351 37.4686C42.6351 36.853 42.4905 36.2706 42.2345 35.7528L48.2441 29.7432L48.4257 29.5616C48.9138 29.0735 48.9138 28.282 48.4257 27.7938C47.9376 27.3057 47.1463 27.3057 46.6579 27.7938ZM38.7508 38.853C37.9876 38.853 37.3665 38.232 37.3665 37.4687C37.3665 36.7055 37.9876 36.0845 38.7508 36.0845C39.5141 36.0845 40.1351 36.7055 40.1351 37.4687C40.1351 38.232 39.5141 38.853 38.7508 38.853Z" />
            <path d="M52.1159 36.2334H50.9578C50.2675 36.2334 49.7078 36.793 49.7078 37.4834C49.7078 38.1738 50.2675 38.7334 50.9578 38.7334H52.1159C52.8061 38.7334 53.3659 38.1738 53.3659 37.4834C53.3659 36.793 52.8061 36.2334 52.1159 36.2334Z" />
            <path d="M26.5437 36.2031H25.3857C24.6955 36.2031 24.1357 36.7628 24.1357 37.4531C24.1357 38.1435 24.6955 38.7031 25.3857 38.7031H26.5437C27.234 38.7031 27.7937 38.1435 27.7937 37.4531C27.7937 36.7628 27.234 36.2031 26.5437 36.2031Z" />
            <path d="M38.7659 26.5115C39.4561 26.5115 40.0159 25.9519 40.0159 25.2615V24.1035C40.0159 23.4131 39.4561 22.8535 38.7659 22.8535C38.0756 22.8535 37.5159 23.4131 37.5159 24.1035V25.2615C37.5159 25.9519 38.0756 26.5115 38.7659 26.5115Z" />
            <path d="M38.7354 48.4258C38.0451 48.4258 37.4854 48.9854 37.4854 49.6758V50.8338C37.4854 51.5242 38.0451 52.0838 38.7354 52.0838C39.4256 52.0838 39.9854 51.5242 39.9854 50.8338V49.6758C39.9854 48.9854 39.4256 48.4258 38.7354 48.4258Z" />
            <path d="M1.25 43.9307C0.92125 43.9307 0.59875 44.0644 0.36625 44.2969C0.13375 44.5294 0 44.8519 0 45.1807C0 45.5107 0.133625 45.8319 0.36625 46.0644C0.598875 46.2969 0.92125 46.4307 1.25 46.4307C1.57875 46.4307 1.90125 46.2969 2.13363 46.0644C2.36613 45.8319 2.5 45.5094 2.5 45.1807C2.5 44.8519 2.36625 44.5294 2.13363 44.2969C1.90125 44.0644 1.57875 43.9307 1.25 43.9307Z" />
        </g>
    </symbol> 

    <symbol id='add-picture' width="36" height="27" viewBox="0 0 36 27">
        <path d="M30.24 11.8466C30.4706 11.2448 30.6 10.5866 30.6 9.90039C30.6 6.91914 28.1812 4.50039 25.2 4.50039C24.0919 4.50039 23.0569 4.83789 22.2019 5.41164C20.6438 2.71164 17.7356 0.900391 14.4 0.900391C9.4275 0.900391 5.4 4.92789 5.4 9.90039C5.4 10.0523 5.40562 10.2041 5.41125 10.356C2.26125 11.4641 0 14.4678 0 18.0003C0 22.4722 3.62812 26.1003 8.1 26.1003H28.8C32.7769 26.1003 36 22.8772 36 18.9003C36 15.4185 33.525 12.5103 30.24 11.8466ZM22.7644 16.836L16.8356 22.7647C16.4869 23.1135 15.9131 23.1135 15.5644 22.7647L9.63562 16.836C9.0675 16.2678 9.4725 15.3003 10.2712 15.3003H13.95V9.00039C13.95 8.50539 14.355 8.10039 14.85 8.10039H17.55C18.045 8.10039 18.45 8.50539 18.45 9.00039V15.3003H22.1287C22.9275 15.3003 23.3325 16.2678 22.7644 16.836Z"/>
    </symbol> 

    <symbol id='anon-icon' width="60" height="60" viewBox="0 0 60 60" >
        <g clip-path="url(#clip0)">
            <path d="M49.0875 40.3172L42.6575 38.0798C42.1901 37.9148 41.6625 38.0473 41.325 38.4148C38.1725 41.8549 34.15 43.7498 30 43.7498C25.85 43.7498 21.8275 41.8547 18.675 38.4148C18.335 38.0473 17.8125 37.9174 17.3425 38.0798L10.9125 40.3172C4.38504 42.5872 0 48.7548 0 55.6647V57.4998C0 58.1898 0.560039 58.7498 1.25004 58.7498H58.7501C59.4401 58.7498 60.0001 58.1898 60.0001 57.4998V55.6647C60 48.7522 55.615 42.5847 49.0875 40.3172ZM57.5 56.2497H2.49996V55.6647C2.49996 49.8172 6.21 44.5972 11.7325 42.6772L17.4025 40.7047C20.9475 44.2872 25.3924 46.2496 30 46.2496C34.6076 46.2496 39.0525 44.2871 42.5975 40.7047L48.2675 42.6772C53.79 44.5972 57.5 49.8172 57.5 55.6647V56.2497Z" />
            <path d="M44.9925 16.575C44.9975 16.4675 45 16.3575 45 16.25C45 7.9775 38.2725 1.25 30 1.25C21.7275 1.25 15 7.9775 15 16.25C15 16.3575 15.0024 16.4675 15.0075 16.575C13.5174 17.39 12.5 19.6674 12.5 22.5C12.5 25.9775 14.035 28.62 16.095 28.745C18.3675 36.275 23.84 41.25 30 41.25C36.1599 41.25 41.6325 36.275 43.905 28.745C45.965 28.62 47.4999 25.9775 47.4999 22.5C47.4999 19.6674 46.4825 17.39 44.9925 16.575ZM43.6725 26.195C43.3325 25.985 42.915 25.95 42.5424 26.1C42.1749 26.25 41.8999 26.5674 41.8024 26.955C40.0524 34.01 35.31 38.75 30 38.75C24.69 38.75 19.9475 34.01 18.1974 26.955C18.0999 26.5674 17.7874 26.28 17.4174 26.1275C17.28 26.07 17.13 26.045 16.9774 26.045C16.7224 26.045 16.4623 26.1175 16.2499 26.25C15.9375 26.25 15 24.92 15 22.5C15 20.2074 15.8424 18.8949 16.1949 18.7599C16.2075 18.7624 16.2225 18.765 16.2324 18.765C16.5999 18.7925 16.9774 18.6699 17.2425 18.405C17.5074 18.1374 17.64 17.765 17.6 17.3925L17.565 17.0799C17.535 16.8049 17.4999 16.5324 17.4999 16.2499C17.4999 9.3575 23.1075 3.74996 30 3.74996C36.8925 3.74996 42.5 9.3575 42.5 16.25C42.5 16.5325 42.465 16.805 42.435 17.0775L42.3999 17.39C42.3624 17.765 42.4924 18.1375 42.7575 18.4025C43.025 18.67 43.3974 18.795 43.7675 18.765C43.7775 18.7625 43.7925 18.7625 43.805 18.7599C44.1575 18.8949 45 20.2074 45 22.5C45 24.92 44.0825 26.25 43.6725 26.195Z" fill="#76C27E"/>
            <path d="M30 11.25C27.055 11.25 25 13.305 25 16.25C25 16.94 25.56 17.5001 26.25 17.5001C26.94 17.5001 27.5001 16.94 27.5001 16.25C27.5001 13.995 29.2476 13.7501 30 13.7501C30.7525 13.7501 32.5 13.9951 32.5 16.25C32.5 18.3476 32.0375 19.305 30.5975 20.1825C27.8174 21.8825 27.3524 24.13 27.515 25.19C27.61 25.805 28.135 26.2275 28.7399 26.2275C28.79 26.2275 28.8425 26.2225 28.895 26.2175C29.5625 26.1401 30.0449 25.5225 29.99 24.8501C29.9875 24.7976 29.9075 23.5351 31.9025 22.3175C34.1024 20.9726 35 19.215 35 16.25C35.0001 13.305 32.9451 11.25 30 11.25Z" fill="#76C27E"/>
            <path d="M28.75 31.2501C29.4404 31.2501 30.0001 30.6904 30.0001 30C30.0001 29.3097 29.4404 28.75 28.75 28.75C28.0597 28.75 27.5 29.3097 27.5 30C27.5 30.6904 28.0597 31.2501 28.75 31.2501Z" fill="#76C27E"/>
        </g>
    </symbol> 

    <symbol id='apple' width="28" height="28" viewBox="0 0 28 28">
        <path d="M3.73988 10.2933C1.37273 14.4011 2.87757 20.6348 5.49525 24.4145C6.80188 26.3042 8.12477 28.0004 9.93669 28.0004C9.97084 28.0004 10.0051 27.9998 10.0402 27.9984C10.8914 27.9644 11.5066 27.7023 12.1014 27.4491C12.7692 27.1645 13.4598 26.8702 14.5431 26.8702C15.5737 26.8702 16.2314 27.1549 16.8674 27.4302C17.4942 27.7013 18.1399 27.9819 19.0939 27.964C21.1349 27.926 22.388 26.0956 23.4936 24.4809C24.6472 22.7949 25.226 21.158 25.4212 20.5324L25.4291 20.5075C25.4663 20.3964 25.4138 20.275 25.3072 20.2261C25.3043 20.2247 25.2934 20.2202 25.2904 20.2189C24.931 20.0719 21.7783 18.6733 21.7452 14.8613C21.7144 11.7642 24.1103 10.1241 24.5908 9.82687L24.6132 9.81292C24.6652 9.77941 24.7015 9.72626 24.7138 9.66548C24.7261 9.6048 24.7133 9.54164 24.6784 9.4906C23.0246 7.07048 20.4899 6.70575 19.4694 6.66186C19.3214 6.64708 19.1685 6.63965 19.015 6.63965C17.8164 6.63965 16.6683 7.09233 15.7458 7.45605C15.1091 7.70714 14.5591 7.92398 14.1797 7.92398C13.7535 7.92398 13.2004 7.70447 12.5599 7.45036C11.7034 7.11042 10.7325 6.72521 9.70479 6.72521C9.68028 6.72521 9.65614 6.72548 9.63236 6.72594C7.24272 6.7611 4.98473 8.12824 3.73988 10.2933Z" fill="#4D4D4D"/>
        <path d="M19.4715 0.000176394C18.0244 0.0591141 16.2885 0.949881 15.251 2.16517C14.3692 3.18667 13.5078 4.8898 13.7347 6.60652C13.749 6.71393 13.8364 6.79683 13.9444 6.80519C14.0421 6.81281 14.1418 6.81666 14.2411 6.81675C15.6561 6.81675 17.1825 6.03395 18.2249 4.77349C19.3221 3.44252 19.8768 1.73443 19.709 0.204439C19.6958 0.0845436 19.5903 -0.00450557 19.4715 0.000176394Z" fill="#4D4D4D"/>
    </symbol> 

    <symbol id='appleStore' width="58" height="13" viewBox="0 0 58 13">
        <path d="M8.15877 9.93187H6.50279L5.6142 7.10458H2.46379L1.6156 9.93187H0L3.11002 0.238281H5.04875L8.15877 9.93187ZM5.33147 5.89288L4.52367 3.3483C4.44289 3.10596 4.28134 2.50011 4.039 1.53075H3.9986C3.91782 1.93465 3.75626 2.5405 3.55431 3.3483L2.74651 5.89288H5.33147Z" fill="#333333"/>
        <path d="M16.156 6.37791C16.156 7.54922 15.8329 8.51858 15.1866 9.20521C14.6212 9.81106 13.8941 10.1342 13.046 10.1342C12.117 10.1342 11.4707 9.81106 11.0668 9.12443V12.7999H9.53203V5.24699C9.53203 4.51997 9.53203 3.75256 9.49164 2.94476H10.8649L10.9457 4.03529H10.9861C11.5111 3.18711 12.2785 2.7832 13.3287 2.7832C14.1365 2.7832 14.8231 3.10632 15.3886 3.75256C15.9136 4.43919 16.156 5.28738 16.156 6.37791ZM14.5808 6.4183C14.5808 5.73167 14.4192 5.16622 14.1365 4.72193C13.8134 4.27764 13.3691 4.03529 12.8036 4.03529C12.4401 4.03529 12.0766 4.15646 11.7535 4.3988C11.4304 4.64114 11.2284 5.00465 11.1476 5.40855C11.1072 5.6105 11.0668 5.77207 11.0668 5.89324V7.06454C11.0668 7.58961 11.2284 7.99352 11.5515 8.35703C11.8746 8.72054 12.2785 8.88209 12.7632 8.88209C13.3287 8.88209 13.8134 8.63975 14.1365 8.19546C14.4192 7.75117 14.5808 7.14532 14.5808 6.4183Z" fill="#333333"/>
        <path d="M24.1936 6.37791C24.1936 7.54922 23.8705 8.51858 23.2243 9.20521C22.6588 9.81106 21.9318 10.1342 21.0836 10.1342C20.1546 10.1342 19.5084 9.81106 19.1045 9.12443H19.0641V12.7999H17.5293V5.24699C17.5293 4.51997 17.5293 3.75256 17.4889 2.94476H18.8621L18.9429 4.03529H18.9833C19.5084 3.18711 20.2758 2.7832 21.3259 2.7832C22.1337 2.7832 22.8204 3.10632 23.3858 3.75256C23.9109 4.43919 24.1936 5.28738 24.1936 6.37791ZM22.6184 6.4183C22.6184 5.73167 22.4569 5.16622 22.1741 4.72193C21.851 4.27764 21.4067 4.03529 20.8413 4.03529C20.4374 4.03529 20.1142 4.15646 19.7911 4.3988C19.468 4.64114 19.2661 5.00465 19.1853 5.40855C19.1449 5.6105 19.1045 5.77207 19.1045 5.89324V7.06454C19.1045 7.58961 19.2661 7.99352 19.5892 8.35703C19.9123 8.72054 20.3162 8.88209 20.8009 8.88209C21.3663 8.88209 21.851 8.63975 22.1741 8.19546C22.4569 7.75117 22.6184 7.14532 22.6184 6.4183Z" fill="#333333"/>
        <path d="M33.2006 7.22617C33.2006 8.03397 32.9178 8.72059 32.3524 9.24566C31.7061 9.81112 30.8579 10.0939 29.727 10.0939C28.6769 10.0939 27.8691 9.89191 27.2228 9.48801L27.5863 8.19552C28.273 8.59942 29 8.80137 29.8482 8.80137C30.4136 8.80137 30.8983 8.6802 31.2214 8.39747C31.5446 8.11474 31.7061 7.79163 31.7061 7.34734C31.7061 6.94344 31.585 6.62032 31.3022 6.33759C31.0195 6.05486 30.5752 5.81251 29.9694 5.57017C28.273 4.92393 27.4248 3.99497 27.4248 2.78327C27.4248 1.97547 27.7075 1.32924 28.3134 0.844555C28.9192 0.319486 29.6866 0.0771484 30.6964 0.0771484C31.585 0.0771484 32.312 0.238698 32.8774 0.521428L32.4735 1.77352C31.9081 1.49079 31.3022 1.32923 30.6156 1.32923C30.0501 1.32923 29.6462 1.4504 29.3231 1.73313C29.0808 1.97547 28.9192 2.2582 28.9192 2.62171C28.9192 2.98522 29.0808 3.30834 29.3635 3.55068C29.6058 3.79302 30.0905 4.03537 30.7772 4.3181C31.6253 4.64121 32.2312 5.04511 32.6351 5.4894C32.9986 6.01447 33.2006 6.57993 33.2006 7.22617Z" fill="#333333"/>
        <path d="M38.3301 4.11644H36.6337V7.5092C36.6337 8.35739 36.9164 8.80167 37.5223 8.80167C37.805 8.80167 38.0474 8.76129 38.2089 8.7209L38.2493 9.8922C37.9262 10.0134 37.5223 10.0538 37.0376 10.0538C36.4317 10.0538 35.9471 9.85181 35.5836 9.4883C35.2201 9.12479 35.0585 8.47855 35.0585 7.58997V4.07605H34.0487V2.90474H35.0585V1.61226L36.5933 1.16797V2.90474H38.2897V4.11644H38.3301Z" fill="#333333"/>
        <path d="M46.0446 6.4183C46.0446 7.50883 45.7215 8.35702 45.1156 9.04365C44.4694 9.77067 43.6212 10.0938 42.571 10.0938C41.5613 10.0938 40.7131 9.77067 40.1072 9.08404C39.5014 8.39741 39.1783 7.54922 39.1783 6.49909C39.1783 5.40856 39.5014 4.51997 40.1072 3.83334C40.7535 3.14672 41.5613 2.7832 42.6518 2.7832C43.6616 2.7832 44.5098 3.10632 45.1156 3.79295C45.7215 4.51997 46.0446 5.36816 46.0446 6.4183ZM44.429 6.45869C44.429 5.81245 44.3078 5.24699 44.0251 4.8027C43.702 4.23724 43.2173 3.95451 42.6518 3.95451C42.046 3.95451 41.5613 4.23724 41.2382 4.8027C40.9554 5.24699 40.8343 5.81246 40.8343 6.49909C40.8343 7.14533 40.9554 7.71079 41.2382 8.15508C41.5613 8.72054 42.046 9.00326 42.6518 9.00326C43.2577 9.00326 43.702 8.72054 44.0251 8.15508C44.2674 7.63001 44.429 7.10493 44.429 6.45869Z" fill="#333333"/>
        <path d="M51.0933 4.3183C50.9318 4.27791 50.7702 4.27791 50.6086 4.27791C50.0432 4.27791 49.6393 4.47986 49.3565 4.88376C49.1142 5.24727 48.9526 5.69155 48.9526 6.25701V9.9325H47.4178V5.16648C47.4178 4.35868 47.4178 3.63166 47.3774 2.98542H48.7103L48.7507 4.3183H48.7911C48.9527 3.87401 49.195 3.4701 49.5585 3.22777C49.922 2.98543 50.2855 2.86426 50.6894 2.86426C50.851 2.86426 50.9722 2.86426 51.0933 2.90465V4.3183Z" fill="#333333"/>
        <path d="M58 6.13558C58 6.41831 58 6.66064 57.9596 6.8222H53.3148C53.3148 7.50883 53.5571 8.0339 54.0014 8.39741C54.4053 8.72053 54.89 8.88209 55.5362 8.88209C56.2228 8.88209 56.8691 8.76093 57.4345 8.55898L57.6769 9.6495C57.0306 9.93223 56.2228 10.0938 55.3343 10.0938C54.2437 10.0938 53.3955 9.77067 52.7897 9.12443C52.1838 8.47819 51.8607 7.63001 51.8607 6.53948C51.8607 5.48934 52.1435 4.60076 52.7089 3.91413C53.3148 3.18711 54.1226 2.7832 55.1323 2.7832C56.1421 2.7832 56.9095 3.14672 57.4345 3.91413C57.798 4.51998 58 5.247 58 6.13558ZM56.546 5.73168C56.546 5.28739 56.4652 4.88349 56.2632 4.51998C55.9805 4.07569 55.5766 3.87374 55.0111 3.87374C54.4861 3.87374 54.0822 4.07569 53.7591 4.51998C53.5167 4.8431 53.3551 5.247 53.3148 5.73168H56.546Z" fill="#333333"/>
    </symbol> 

    <symbol id='arrow' width="10" height="6" viewBox="0 0 10 6">
        <path d="M4.61137 5.75831L0.160979 1.4859C-0.0536598 1.27985 -0.0536598 0.945787 0.160979 0.739756L0.680047 0.241449C0.894319 0.0357473 1.24159 0.0353516 1.45637 0.24057L5 3.62654L8.54362 0.24057C8.75841 0.0353516 9.10569 0.0357473 9.31994 0.241449L9.83903 0.739756C10.0537 0.945808 10.0537 1.27987 9.83903 1.4859L5.38866 5.75831C5.174 5.96435 4.82603 5.96435 4.61137 5.75831Z"/>
    </symbol> 

    <symbol id='balance' width="22" height="17" viewBox="0 0 22 17">
        <path d="M4.71428 10.1186H1.57143C0.703704 10.1186 0 10.8436 0 11.7376V14.9757C0 15.8698 0.703704 16.5948 1.57143 16.5948H4.71428C5.58201 16.5948 6.28572 15.8698 6.28572 14.9757V11.7376C6.28572 10.8436 5.58201 10.1186 4.71428 10.1186ZM12.5714 10.1186H9.42858C8.56082 10.1186 7.85716 10.8436 7.85716 11.7376V14.9757C7.85716 15.8698 8.56082 16.5948 9.42858 16.5948H12.5714C13.4392 16.5948 14.1428 15.8698 14.1428 14.9757V11.7376C14.1428 10.8436 13.4392 10.1186 12.5714 10.1186ZM20.4286 10.1186H17.2857C16.418 10.1186 15.7143 10.8436 15.7143 11.7376V14.9757C15.7143 15.8698 16.418 16.5948 17.2857 16.5948H20.4286C21.2963 16.5948 22 15.8698 22 14.9757V11.7376C22 10.8436 21.2963 10.1186 20.4286 10.1186ZM4.71428 0.404297H1.57143C0.703704 0.404297 0 1.12933 0 2.02334V5.26144C0 6.15545 0.703704 6.88049 1.57143 6.88049H4.71428C5.58201 6.88049 6.28572 6.15545 6.28572 5.26144V2.02334C6.28572 1.12933 5.58201 0.404297 4.71428 0.404297ZM12.5714 0.404297H9.42858C8.56082 0.404297 7.85716 1.12933 7.85716 2.02334V5.26144C7.85716 6.15545 8.56082 6.88049 9.42858 6.88049H12.5714C13.4392 6.88049 14.1428 6.15545 14.1428 5.26144V2.02334C14.1428 1.12933 13.4392 0.404297 12.5714 0.404297ZM20.4286 0.404297H17.2857C16.418 0.404297 15.7143 1.12933 15.7143 2.02334V5.26144C15.7143 6.15545 16.418 6.88049 17.2857 6.88049H20.4286C21.2963 6.88049 22 6.15545 22 5.26144V2.02334C22 1.12933 21.2963 0.404297 20.4286 0.404297Z"/>
    </symbol> 

    <symbol id='calendar' width="12" height="13" viewBox="0 0 12 13">
        <g clip-path="url(#clip0)">
            <path d="M11.6786 4.25228H0.321429C0.144643 4.25228 0 4.12 0 3.95833V3.0765C0 2.42737 0.575893 1.90072 1.28571 1.90072H2.57143V0.626953C2.57143 0.465283 2.71607 0.333008 2.89286 0.333008H3.96429C4.14107 0.333008 4.28571 0.465283 4.28571 0.626953V1.90072H7.71429V0.626953C7.71429 0.465283 7.85893 0.333008 8.03571 0.333008H9.10714C9.28393 0.333008 9.42857 0.465283 9.42857 0.626953V1.90072H10.7143C11.4241 1.90072 12 2.42737 12 3.0765V3.95833C12 4.12 11.8554 4.25228 11.6786 4.25228ZM0.321429 5.03613H11.6786C11.8554 5.03613 12 5.16841 12 5.33008V11.6989C12 12.348 11.4241 12.8747 10.7143 12.8747H1.28571C0.575893 12.8747 0 12.348 0 11.6989V5.33008C0 5.16841 0.144643 5.03613 0.321429 5.03613ZM3.42857 10.0332C3.42857 9.87153 3.28393 9.73926 3.10714 9.73926H2.03571C1.85893 9.73926 1.71429 9.87153 1.71429 10.0332V11.013C1.71429 11.1747 1.85893 11.307 2.03571 11.307H3.10714C3.28393 11.307 3.42857 11.1747 3.42857 11.013V10.0332ZM3.42857 6.89779C3.42857 6.73612 3.28393 6.60384 3.10714 6.60384H2.03571C1.85893 6.60384 1.71429 6.73612 1.71429 6.89779V7.8776C1.71429 8.03927 1.85893 8.17155 2.03571 8.17155H3.10714C3.28393 8.17155 3.42857 8.03927 3.42857 7.8776V6.89779ZM6.85714 10.0332C6.85714 9.87153 6.7125 9.73926 6.53571 9.73926H5.46429C5.2875 9.73926 5.14286 9.87153 5.14286 10.0332V11.013C5.14286 11.1747 5.2875 11.307 5.46429 11.307H6.53571C6.7125 11.307 6.85714 11.1747 6.85714 11.013V10.0332ZM6.85714 6.89779C6.85714 6.73612 6.7125 6.60384 6.53571 6.60384H5.46429C5.2875 6.60384 5.14286 6.73612 5.14286 6.89779V7.8776C5.14286 8.03927 5.2875 8.17155 5.46429 8.17155H6.53571C6.7125 8.17155 6.85714 8.03927 6.85714 7.8776V6.89779ZM10.2857 10.0332C10.2857 9.87153 10.1411 9.73926 9.96429 9.73926H8.89286C8.71607 9.73926 8.57143 9.87153 8.57143 10.0332V11.013C8.57143 11.1747 8.71607 11.307 8.89286 11.307H9.96429C10.1411 11.307 10.2857 11.1747 10.2857 11.013V10.0332ZM10.2857 6.89779C10.2857 6.73612 10.1411 6.60384 9.96429 6.60384H8.89286C8.71607 6.60384 8.57143 6.73612 8.57143 6.89779V7.8776C8.57143 8.03927 8.71607 8.17155 8.89286 8.17155H9.96429C10.1411 8.17155 10.2857 8.03927 10.2857 7.8776V6.89779Z"/>
        </g>
    </symbol> 

    <symbol id='cash-in' width="23" height="23" viewBox="0 0 23 23">
        <path d="M23 11.5C23 17.8528 17.8528 23 11.5 23C5.14718 23 0 17.8528 0 11.5C0 5.14718 5.14718 0 11.5 0C17.8528 0 23 5.14718 23 11.5ZM9.45968 6.12097V11.5H6.17198C5.6758 11.5 5.42541 12.1028 5.77782 12.4506L11.1058 17.7508C11.3238 17.9688 11.6716 17.9688 11.8895 17.7508L17.2175 12.4506C17.57 12.0982 17.3196 11.5 16.8234 11.5H13.5403V6.12097C13.5403 5.81492 13.2899 5.56452 12.9839 5.56452H10.0161C9.7101 5.56452 9.45968 5.81492 9.45968 6.12097Z" />
    </symbol> 
        
    <symbol id='clear' width="12" height="12" viewBox="0 0 12 12">
        <path d="M11.6485 0.351827C11.1793 -0.117299 10.4161 -0.117252 9.947 0.351827L6.72353 3.57524L6.6545 3.50622C6.05504 2.90676 5.09921 2.84818 4.43108 3.37007L0.14245 6.7196C0.0616609 6.78269 0.0118092 6.87742 0.0055514 6.97975C-0.00070643 7.08208 0.0371921 7.18218 0.109684 7.25468L4.75022 11.8952C4.81754 11.9625 4.90866 12.0001 5.00323 12.0001C5.0105 12.0001 5.01781 11.9998 5.02512 11.9993C5.12745 11.9931 5.22218 11.9432 5.28528 11.8625L8.6348 7.57381C9.15665 6.90573 9.09808 5.94986 8.4986 5.3504L8.42503 5.2768L11.6485 2.05332C12.1176 1.58422 12.1176 0.820931 11.6485 0.351827ZM4.97026 11.103L3.92693 10.0597L5.20967 8.64826C5.34258 8.50201 5.33178 8.27574 5.18553 8.14276C5.03926 8.00986 4.81292 8.02066 4.68 8.16691L3.42026 9.55299L2.45189 8.58466L3.83799 7.32489C3.98424 7.19196 3.99504 6.96562 3.86213 6.81937C3.72917 6.67314 3.5029 6.66229 3.3566 6.79523L1.94522 8.07796L0.901899 7.03464L4.28783 4.39014L7.6148 7.71706L4.97026 11.103ZM8.07073 7.13322L8.05858 7.14876L4.85612 3.94626L4.87166 3.93414C5.25526 3.63449 5.80418 3.66812 6.14839 4.01232L6.47045 4.33438L7.66588 5.52979L7.9925 5.85644C8.33675 6.20067 8.37035 6.74958 8.07073 7.13322ZM11.1424 1.54721L7.91893 4.77065L7.22961 4.08132L10.453 0.857914C10.6431 0.667859 10.9523 0.667906 11.1424 0.857914C11.3324 1.04797 11.3324 1.35716 11.1424 1.54721Z" fill="white"/>
    </symbol> 

    <symbol id='done' width="24" height="25" viewBox="0 0 24 25">
        <g clip-path="url(#clip0)">
            <path d="M11.9998 0.775391C5.38278 0.775391 0 6.18061 0 12.8245C0 19.4683 5.38278 24.8736 11.9998 24.8736C18.6167 24.8736 24 19.4683 24 12.8245C24 6.18061 18.6167 0.775391 11.9998 0.775391ZM11.9998 23.2933C6.2508 23.2933 1.5738 18.5969 1.5738 12.8245C1.5738 7.05194 6.25074 2.35569 11.9998 2.35569C17.7488 2.35569 22.426 7.052 22.426 12.8245C22.4261 18.5969 17.7487 23.2933 11.9998 23.2933Z" fill="#D2D2D2"/>
            <path d="M16.344 8.87997L10.1562 15.0928L7.65485 12.5818C7.34747 12.2735 6.84953 12.2734 6.54215 12.582C6.23465 12.8907 6.23465 13.3908 6.54215 13.6994L9.59993 16.7692C9.75359 16.9233 9.95489 17.0004 10.1562 17.0004C10.3575 17.0004 10.5593 16.9233 10.7129 16.769C10.7134 16.7683 10.7138 16.7677 10.7145 16.7669L17.4567 9.99722C17.7642 9.68876 17.7642 9.18836 17.4567 8.87991C17.1494 8.57127 16.6511 8.57127 16.344 8.87997Z" fill="#D2D2D2"/>
        </g>
    </symbol> 
        
    <symbol id='googlePlay' width="23" height="21" viewBox="0 0 23 21">
        <path d="M3.79013 0.267628C3.14608 -0.058039 2.3785 -0.0871604 1.70906 0.183956L12.9333 9.63241L16.6032 6.53529L3.79013 0.267628ZM0.677797 1.05842C0.536195 1.31026 0.460022 1.5904 0.460022 1.87874V19.1621C0.460022 19.4517 0.536683 19.7277 0.679751 19.9742L11.8996 10.5048L0.677797 1.05842ZM12.9348 11.376L1.72864 20.8339C2.026 20.9496 2.34241 21 2.65833 21C3.04847 21 3.43764 20.9217 3.79018 20.7437L16.6057 14.4666L12.9348 11.376ZM21.4832 8.92242C21.4788 8.91996 21.4739 8.9175 21.4695 8.91545L17.9119 7.17514L13.968 10.5036L17.9143 13.8255C17.9143 13.8255 21.4788 12.0798 21.4832 12.0778C22.1448 11.7402 22.5399 11.1504 22.5399 10.4999C22.5399 9.84939 22.1448 9.25958 21.4832 8.92242Z" fill="#4C4C4C"/>
    </symbol> 

    <symbol id='google-text' width="71" height="15" viewBox="0 0 71 15">
        <path d="M44.1219 9.54401L43.4 10.1876C43.2195 10.2734 43.0841 10.3592 42.9036 10.445C42.4073 10.6595 41.9109 10.7024 41.4597 10.7024C40.9634 10.7024 40.2414 10.6595 39.4744 10.1447C38.3914 9.4153 37.9402 8.21401 37.9402 7.14143C37.9402 4.91046 39.8353 3.83789 41.4146 3.83789C41.9561 3.83789 42.4975 3.9666 42.9488 4.22402C43.7158 4.69595 43.8963 5.29659 43.9866 5.63982L40.4219 7.01273L39.2488 7.09854C39.6097 8.90047 40.9183 9.97304 42.3622 9.97304C43.0841 9.97304 43.6256 9.75853 44.1219 9.54401C44.1219 9.50111 44.2122 9.45821 44.1219 9.54401ZM42.0012 5.89724C42.2719 5.81143 42.4524 5.72563 42.4524 5.51111C42.4524 4.95337 41.7756 4.26692 40.9634 4.26692C40.3768 4.26692 39.2488 4.69596 39.2488 6.24047C39.2488 6.49789 39.2939 6.75531 39.2939 7.01273L42.0012 5.89724Z" fill="#333333"/>
        <path d="M36.7219 9.41489C36.7219 9.97263 36.8122 10.0584 37.3085 10.1013C37.5793 10.1442 37.8049 10.1442 38.0756 10.1871L37.5341 10.4875H34.8719C35.2329 10.0584 35.278 10.0155 35.278 9.7152V9.41489V0.877149H34.1049L35.2329 0.362305H37.3988C36.9475 0.619724 36.8122 0.79134 36.7219 1.26328V9.41489Z" fill="#333333"/>
        <path d="M32.6158 4.52357C32.9768 4.78099 33.6987 5.38163 33.6987 6.45422C33.6987 7.5268 33.067 7.99872 32.4353 8.47066C32.2548 8.64227 32.0292 8.85679 32.0292 9.15711C32.0292 9.45744 32.2548 9.62905 32.4353 9.75776L32.9768 10.1439C33.6536 10.6587 34.2402 11.1736 34.2402 12.1603C34.2402 13.4903 32.8865 14.8632 30.2695 14.8632C28.1036 14.8632 27.0207 13.8765 27.0207 12.8039C27.0207 12.289 27.2914 11.5597 28.1939 11.0449C29.1414 10.4871 30.4048 10.4442 31.0817 10.4013C30.8561 10.1439 30.6304 9.88647 30.6304 9.41453C30.6304 9.15712 30.7207 9.0284 30.7658 8.85678C30.5853 8.85678 30.45 8.89969 30.2695 8.89969C28.6902 8.89969 27.7878 7.78421 27.7878 6.66873C27.7878 6.02518 28.1036 5.29583 28.7353 4.73809C29.5926 4.05163 30.6304 3.96582 31.4426 3.96582H34.556L33.6085 4.48066L32.6158 4.52357ZM31.5329 10.8732C31.3975 10.8732 31.3524 10.8732 31.1719 10.8732C31.0365 10.8732 30.2243 10.9161 29.5926 11.0878C29.2768 11.2165 28.2841 11.5597 28.2841 12.5465C28.2841 13.5762 29.3219 14.3055 30.9463 14.3055C32.3902 14.3055 33.1573 13.662 33.1573 12.761C33.1573 12.0316 32.6609 11.6455 31.5329 10.8732ZM31.9841 8.17034C32.3451 7.82712 32.3451 7.39808 32.3451 7.14066C32.3451 6.11098 31.7134 4.52357 30.45 4.52357C30.0439 4.52357 29.6378 4.69517 29.4121 4.99549C29.1414 5.29582 29.0963 5.68195 29.0963 6.06808C29.0963 7.01195 29.6829 8.59938 30.9914 8.59938C31.3073 8.55647 31.7134 8.38486 31.9841 8.17034Z" fill="#333333"/>
        <path d="M23.2756 10.6594C20.8841 10.6594 19.5756 8.90041 19.5756 7.27009C19.5756 5.38234 21.1999 3.79492 23.5012 3.79492C25.7121 3.79492 27.1109 5.42524 27.1109 7.18427C27.1109 8.9004 25.7121 10.6594 23.2756 10.6594ZM25.1256 9.50105C25.4865 9.02911 25.5768 8.47138 25.5768 7.91363C25.5768 6.66944 24.9451 4.22395 23.0951 4.22395C22.5987 4.22395 22.1024 4.39557 21.7414 4.69589C21.1548 5.21073 21.0646 5.81138 21.0646 6.45493C21.0646 7.87073 21.7865 10.1875 23.6365 10.1875C24.178 10.2304 24.8097 9.97298 25.1256 9.50105Z" fill="#333333"/>
        <path d="M15.2439 10.6594C12.8524 10.6594 11.589 8.90041 11.589 7.27009C11.589 5.38234 13.2134 3.79492 15.5146 3.79492C17.7256 3.79492 19.1244 5.42524 19.1244 7.18427C19.0792 8.9004 17.6805 10.6594 15.2439 10.6594ZM17.139 9.50105C17.5 9.02911 17.5902 8.47138 17.5902 7.91363C17.5902 6.66944 16.9585 4.22395 15.1085 4.22395C14.6122 4.22395 14.1158 4.39557 13.7549 4.69589C13.1683 5.21073 13.078 5.81138 13.078 6.45493C13.078 7.87073 13.8 10.1875 15.65 10.1875C16.1914 10.2304 16.778 9.97298 17.139 9.50105Z" fill="#333333"/>
        <path d="M10.5963 10.1871L8.56583 10.6161C7.75364 10.7448 7.03168 10.8306 6.21948 10.8306C2.339 10.8306 0.849976 8.08483 0.849976 5.98257C0.849976 3.36548 2.9707 0.962891 6.58045 0.962891C7.34753 0.962891 8.06949 1.0487 8.74632 1.26322C9.78412 1.56354 10.2805 1.90677 10.5963 2.12128L9.42315 3.19386L8.9268 3.27966L9.28777 2.76483C8.79143 2.3358 7.93412 1.52064 6.26461 1.52064C4.05363 1.52064 2.33899 3.15095 2.33899 5.46773C2.33899 7.99902 4.27924 10.3587 7.34753 10.3587C8.24997 10.3587 8.70119 10.1871 9.15241 10.0155V7.87031L7.03167 7.99902L8.15972 7.44128H11.1378L10.7768 7.7845C10.6866 7.87031 10.6866 7.87031 10.6414 7.99902C10.6414 8.12773 10.5963 8.51386 10.5963 8.64257V10.1871Z" fill="#333333"/>
        <path d="M48.4988 9.58582V13.2326H47.7317V3.92259H48.4988V4.99517C48.9951 4.30872 49.8975 3.75098 50.9353 3.75098C52.8305 3.75098 54.0939 5.12388 54.0939 7.26905C54.0939 9.41421 52.8305 10.7871 50.9353 10.7871C49.9427 10.83 49.0402 10.3581 48.4988 9.58582ZM53.2817 7.31195C53.2817 5.68163 52.3793 4.43743 50.8 4.43743C49.8073 4.43743 48.8597 5.16679 48.4536 5.81034V8.77066C48.8597 9.41421 49.8073 10.1865 50.8 10.1865C52.3793 10.1865 53.2817 8.94227 53.2817 7.31195Z" fill="#333333"/>
        <path d="M55.1317 10.6586V1.34863H55.8988V10.6586H55.1317Z" fill="#333333"/>
        <path d="M64.4719 12.6323C64.6524 12.7181 64.9231 12.761 65.1036 12.761C65.5549 12.761 65.9158 12.5894 66.1866 11.9458L66.728 10.7445L63.7049 3.96582H64.5622L67.1341 9.84357L69.7061 3.96582H70.5634L66.9085 12.1603C66.5475 13.0184 65.9158 13.4045 65.1036 13.4045C64.878 13.4045 64.517 13.3616 64.3366 13.3187L64.4719 12.6323Z" fill="#333333"/>
        <path d="M62.2158 10.6585C62.1707 10.444 62.1256 10.2295 62.0805 10.0579C62.0353 9.88627 62.0353 9.71465 62.0353 9.54304C61.7646 9.92917 61.4036 10.2295 60.9524 10.444C60.5012 10.7014 60.05 10.7872 59.4183 10.7872C58.6963 10.7872 58.1097 10.6156 57.7036 10.2724C57.2975 9.92917 57.0719 9.45723 57.0719 8.85658C57.0719 8.25594 57.3878 7.78401 57.9744 7.39788C58.561 7.01175 59.328 6.84014 60.2756 6.84014H62.0353V5.98208C62.0353 5.51014 61.8548 5.12401 61.539 4.86659C61.178 4.60917 60.7268 4.43756 60.0951 4.43756C59.5085 4.43756 59.0573 4.56626 58.6963 4.82368C58.3353 5.0811 58.1548 5.38143 58.1548 5.76756H57.3878V5.72465C57.3427 5.20981 57.6134 4.78078 58.1097 4.39465C58.6061 4.00852 59.2829 3.83691 60.1402 3.83691C60.9524 3.83691 61.6292 4.00852 62.1707 4.39465C62.6671 4.78078 62.9378 5.29563 62.9378 6.02498V9.32852C62.9378 9.58594 62.9378 9.80046 62.9829 10.015C63.028 10.2295 63.0731 10.444 63.1183 10.7014L62.2158 10.6585ZM59.5085 10.1437C60.1402 10.1437 60.6366 10.015 61.0878 9.71465C61.539 9.45723 61.9 9.0711 62.0353 8.68497V7.39788H60.2305C59.5536 7.39788 58.9671 7.52659 58.5158 7.82691C58.0646 8.12723 57.839 8.47045 57.839 8.85658C57.839 9.24271 57.9744 9.54304 58.2451 9.75755C58.6512 10.015 59.0122 10.1437 59.5085 10.1437Z" fill="#333333"/>
    </symbol> 

    <symbol id='history' width="22" height="19" viewBox="0 0 22 19">
        <path d="M19.9375 19H2.0625C0.923395 19 0 18.0886 0 16.9643V2.03571C0 0.911403 0.923395 0 2.0625 0H19.9375C21.0766 0 22 0.911403 22 2.03571V16.9643C22 18.0886 21.0766 19 19.9375 19ZM5.5 3.73214C4.55078 3.73214 3.78125 4.49167 3.78125 5.42857C3.78125 6.36547 4.55078 7.125 5.5 7.125C6.44922 7.125 7.21875 6.36547 7.21875 5.42857C7.21875 4.49167 6.44922 3.73214 5.5 3.73214ZM5.5 7.80357C4.55078 7.80357 3.78125 8.5631 3.78125 9.5C3.78125 10.4369 4.55078 11.1964 5.5 11.1964C6.44922 11.1964 7.21875 10.4369 7.21875 9.5C7.21875 8.5631 6.44922 7.80357 5.5 7.80357ZM5.5 11.875C4.55078 11.875 3.78125 12.6345 3.78125 13.5714C3.78125 14.5083 4.55078 15.2679 5.5 15.2679C6.44922 15.2679 7.21875 14.5083 7.21875 13.5714C7.21875 12.6345 6.44922 11.875 5.5 11.875ZM17.875 6.10714V4.75C17.875 4.46894 17.6441 4.24107 17.3594 4.24107H8.76562C8.48086 4.24107 8.25 4.46894 8.25 4.75V6.10714C8.25 6.3882 8.48086 6.61607 8.76562 6.61607H17.3594C17.6441 6.61607 17.875 6.3882 17.875 6.10714ZM17.875 10.1786V8.82143C17.875 8.54036 17.6441 8.3125 17.3594 8.3125H8.76562C8.48086 8.3125 8.25 8.54036 8.25 8.82143V10.1786C8.25 10.4596 8.48086 10.6875 8.76562 10.6875H17.3594C17.6441 10.6875 17.875 10.4596 17.875 10.1786ZM17.875 14.25V12.8929C17.875 12.6118 17.6441 12.3839 17.3594 12.3839H8.76562C8.48086 12.3839 8.25 12.6118 8.25 12.8929V14.25C8.25 14.5311 8.48086 14.7589 8.76562 14.7589H17.3594C17.6441 14.7589 17.875 14.5311 17.875 14.25Z"/>
    </symbol> 

    <symbol id='kommis-icon' width="60" height="60" viewBox="0 0 60 60">
        <g clip-path="url(#clip0)">
            <path d="M17.1094 32.3457C17.1094 32.9925 16.5848 33.5176 15.9375 33.5176C15.2902 33.5176 14.7656 32.9925 14.7656 32.3457C14.7656 31.6984 15.2902 31.1738 15.9375 31.1738C16.5848 31.1738 17.1094 31.6984 17.1094 32.3457Z" fill="#76C27E"/>
            <path d="M4.02878 36.2061C5.63781 37.9831 5.57098 39.4013 5.46066 41.751C5.42724 42.4555 5.38971 43.2538 5.4039 44.1176C5.47256 48.3025 8.54048 48.9987 11.0055 49.5577C13.1025 50.0337 15.0837 50.4832 16.2721 52.5551C18.3059 56.1641 20.0344 59.0452 24.038 57.7626C25.3976 57.3263 26.3698 56.9139 27.1512 56.5825C28.3254 56.0844 28.9722 55.8098 29.9999 55.8098C31.0271 55.8098 31.6744 56.0844 32.8485 56.5825C33.6304 56.9139 34.6027 57.3268 35.9622 57.7626C37.8633 58.3719 39.4055 58.04 40.7143 56.8828C41.9145 55.8212 42.8511 54.0867 43.7277 52.5551C44.9165 50.4832 46.8972 50.0337 48.9943 49.5577C51.4593 48.9987 54.5272 48.3025 54.595 44.1176C54.6092 43.2534 54.5721 42.4546 54.5391 41.7501C54.4288 39.4008 54.3624 37.9827 55.9715 36.2061C58.4136 33.5094 60.003 31.8281 60.0002 29.9677C60.0034 27.9824 58.0479 26.0241 55.9715 23.7321C54.3624 21.9546 54.4288 20.5365 54.5391 18.1868C54.5721 17.4823 54.6096 16.6835 54.595 15.8197C54.5272 11.6353 51.4598 10.939 48.9947 10.3797C46.8977 9.90359 44.9165 9.45406 43.7277 7.38178C42.847 5.84416 41.9026 4.10558 40.7133 3.05364C39.3716 1.86758 37.8175 1.58056 35.9622 2.1752C34.6018 2.61144 33.6281 3.02389 32.8462 3.35576C31.6726 3.85335 31.0262 4.12755 30.0008 4.12801C28.9731 4.12755 28.3272 3.85335 27.1535 3.35576C26.3717 3.02389 25.3985 2.61144 24.038 2.17565C22.1827 1.58011 20.6286 1.86758 19.2869 3.05364C18.0866 4.11473 17.1491 5.85056 16.2721 7.38178C15.0842 9.45269 13.0256 9.90313 10.8462 10.3797C8.29558 10.9377 5.121 11.6321 5.05233 15.8197C5.0354 16.8698 5.12008 17.8132 5.19561 18.6455C5.38925 20.7992 5.50643 22.0993 4.02878 23.7321C1.62416 26.3867 -0.00638984 28.1019 1.88239e-05 29.965C-0.00684761 31.937 1.89286 33.8482 4.02878 36.2061ZM5.76599 25.305C7.93257 22.9113 7.73665 20.737 7.52974 18.4353C7.4565 17.6233 7.38051 16.7833 7.39562 15.8577C7.43224 13.6192 8.6334 13.2626 11.3466 12.6694C13.6871 12.1571 16.5998 11.5204 18.305 8.54815C20.028 5.74803 20.8016 3.59883 23.3225 4.40724C24.5814 4.81099 25.4616 5.18406 26.2385 5.51365C27.5001 6.04832 28.4961 6.47129 30.0003 6.47175C31.5027 6.47129 32.4993 6.04832 33.7609 5.51365C34.5377 5.18406 35.418 4.81099 36.6777 4.40724C39.1931 3.60112 39.9457 5.70637 41.6948 8.54815C43.3949 11.5117 46.2124 12.1512 48.4761 12.6653C51.1347 13.2686 52.2146 13.6037 52.2517 15.8581C52.2645 16.6482 52.2306 17.3747 52.1977 18.0774C52.0837 20.5113 51.9757 22.8106 54.2338 25.3054C55.9628 27.2138 57.6583 29.0128 57.656 29.965V29.9709C57.6588 30.9995 55.6336 33.0878 54.2338 34.6328C51.9757 37.1262 52.0837 39.4256 52.1977 41.8595C52.2306 42.5621 52.2645 43.2891 52.2517 44.0792C52.2146 46.3341 51.1343 46.6687 48.4756 47.272C46.212 47.7857 43.3949 48.4251 41.6948 51.3892L41.5364 51.6647C39.5543 55.1272 38.7404 56.1911 36.6777 55.531C35.4198 55.1272 34.54 54.7542 33.7636 54.425C32.5011 53.8895 31.5036 53.466 29.9999 53.466C28.4957 53.466 27.4982 53.889 26.2357 54.425C25.4598 54.7542 24.58 55.1272 23.3225 55.5305C20.8122 56.3348 20.0637 54.247 18.3055 51.3887C16.6049 48.4251 13.7878 47.7857 11.5242 47.272C8.86503 46.6687 7.78426 46.3341 7.74718 44.0792C7.73436 43.2895 7.76869 42.5635 7.80165 41.8613C7.91655 39.4265 8.02458 37.1267 5.76599 34.6328C4.18808 32.891 2.34055 30.9533 2.34376 29.965C2.3401 28.9387 4.36935 26.8472 5.76599 25.305Z" fill="#76C27E"/>
            <path d="M25.3125 21.7988C23.3739 21.7988 21.7969 23.3758 21.7969 25.3145C21.7969 27.2526 23.3739 28.8301 25.3125 28.8301C27.2511 28.8301 28.8281 27.2526 28.8281 25.3145C28.8281 23.3758 27.2511 21.7988 25.3125 21.7988ZM25.3125 26.4863C24.6661 26.4863 24.1406 25.9604 24.1406 25.3145C24.1406 24.6681 24.6661 24.1426 25.3125 24.1426C25.9589 24.1426 26.4844 24.6681 26.4844 25.3145C26.4844 25.9604 25.9589 26.4863 25.3125 26.4863Z" fill="#76C27E"/>
            <path d="M31.1719 34.6894C31.1719 36.6276 32.7489 38.2051 34.6875 38.2051C36.6261 38.2051 38.2031 36.6276 38.2031 34.6894C38.2031 32.7508 36.6261 31.1738 34.6875 31.1738C32.7489 31.1738 31.1719 32.7508 31.1719 34.6894ZM35.8594 34.6894C35.8594 35.3354 35.3339 35.8613 34.6875 35.8613C34.0411 35.8613 33.5156 35.3354 33.5156 34.6894C33.5156 34.0431 34.0411 33.5176 34.6875 33.5176C35.3339 33.5176 35.8594 34.0431 35.8594 34.6894Z" fill="#76C27E"/>
            <path d="M24.6622 38.0086C25.1983 38.3656 25.927 38.2242 26.2873 37.6835L35.6623 23.6211C36.0212 23.0823 35.8756 22.3549 35.3373 21.996C34.7985 21.6366 34.0711 21.7822 33.7122 22.321L24.3372 36.3835C23.9783 36.9218 24.1239 37.6492 24.6622 38.0086Z" fill="#76C27E"/>
            <path d="M29.9999 49.9237C40.9848 49.9237 49.9217 40.9868 49.9217 30.0019C49.9217 19.017 40.9848 10.0801 29.9999 10.0801C19.015 10.0801 10.0781 19.017 10.0781 30.0019C10.0781 40.9868 19.015 49.9237 29.9999 49.9237ZM29.9999 12.4238C39.6926 12.4238 47.578 20.3092 47.578 30.0019C47.578 39.6941 39.6926 47.5799 29.9999 47.5799C20.3073 47.5799 12.4219 39.6941 12.4219 30.0019C12.4219 20.3092 20.3073 12.4238 29.9999 12.4238Z" fill="#76C27E"/>
            <path d="M27.8509 17.2915C28.489 17.1839 28.9193 16.5792 28.8117 15.9411C28.7046 15.303 28.1004 14.8731 27.4618 14.9802C21.0691 16.0564 16.0515 21.0749 14.9767 27.468C14.8568 28.1803 15.4052 28.8345 16.1335 28.8345C16.6952 28.8345 17.1914 28.4293 17.288 27.8567C18.1971 22.4477 22.4424 18.202 27.8509 17.2915Z" fill="#76C27E"/>
        </g>
    </symbol> 

    <symbol id='mail' width="22" height="17" viewBox="0 0 22 17">
        <path d="M21.5832 5.61354C21.7508 5.4763 22 5.60469 22 5.82161V14.875C22 16.0481 21.0761 17 19.9375 17H2.0625C0.923828 17 0 16.0481 0 14.875V5.82604C0 5.60469 0.244922 5.48073 0.416797 5.61797C1.3793 6.38828 2.65547 7.36667 7.03828 10.6471C7.94496 11.3289 9.47458 12.7633 11 12.7545C12.534 12.7677 14.0938 11.3024 14.966 10.6471C19.3488 7.36667 20.6207 6.38385 21.5832 5.61354ZM11 11.3333C11.9969 11.351 13.432 10.0406 14.1539 9.50052C19.8558 5.23724 20.2898 4.86536 21.6047 3.80286C21.8539 3.60365 22 3.29375 22 2.96615V2.125C22 0.951823 21.0761 0 19.9375 0H2.0625C0.923828 0 0 0.951823 0 2.125V2.96615C0 3.29375 0.146094 3.59922 0.395312 3.80286C1.71016 4.86094 2.14414 5.23724 7.84609 9.50052C8.56797 10.0406 10.0031 11.351 11 11.3333Z" fill="#4C4C4C"/>
    </symbol> 

    <symbol id='message' width="22" height="17" viewBox="0 0 22 17">
        <path d="M21.5832 5.61354C21.7508 5.4763 22 5.60469 22 5.82161V14.875C22 16.0481 21.0761 17 19.9375 17H2.0625C0.923828 17 0 16.0481 0 14.875V5.82604C0 5.60469 0.244922 5.48073 0.416797 5.61797C1.3793 6.38828 2.65547 7.36667 7.03828 10.6471C7.94496 11.3289 9.47458 12.7633 11 12.7545C12.534 12.7677 14.0938 11.3024 14.966 10.6471C19.3488 7.36667 20.6207 6.38385 21.5832 5.61354ZM11 11.3333C11.9969 11.351 13.432 10.0406 14.1539 9.50052C19.8558 5.23724 20.2898 4.86536 21.6047 3.80286C21.8539 3.60365 22 3.29375 22 2.96615V2.125C22 0.951823 21.0761 0 19.9375 0H2.0625C0.923828 0 0 0.951823 0 2.125V2.96615C0 3.29375 0.146094 3.59922 0.395312 3.80286C1.71016 4.86094 2.14414 5.23724 7.84609 9.50052C8.56797 10.0406 10.0031 11.351 11 11.3333Z"/>
    </symbol> 

    <symbol id='notification' viewBox="0 0 19 22">
        <path d="M18.4013 15.7291C17.4577 14.7731 16.2857 13.5832 16.2857 8.9375C16.2857 5.52604 13.8331 2.69547 10.617 2.15574C10.7737 1.92638 10.8575 1.65397 10.8571 1.375C10.8571 0.615613 10.2495 0 9.5 0C8.75045 0 8.14286 0.615613 8.14286 1.375C8.14286 1.66504 8.23168 1.93394 8.383 2.15574C5.16693 2.69547 2.71428 5.52604 2.71428 8.9375C2.71428 13.5832 1.54192 14.7731 0.598282 15.7291C-0.680356 17.0246 0.225832 19.25 2.03774 19.25H6.78571C6.78571 20.7688 8.00097 22 9.5 22C10.999 22 12.2143 20.7688 12.2143 19.25H16.9618C18.7702 19.25 19.6826 17.0272 18.4013 15.7291ZM9.5 20.2812C9.58998 20.2812 9.67629 20.3175 9.73987 20.3819C9.80352 20.4464 9.83928 20.5338 9.83928 20.625C9.83928 20.7162 9.80352 20.8036 9.73987 20.8681C9.67629 20.9325 9.58998 20.9688 9.5 20.9688C8.56459 20.9688 7.80357 20.1977 7.80357 19.25H8.48214C8.48214 19.8186 8.93875 20.2812 9.5 20.2812Z"/>
    </symbol> 
    
    <symbol id='plus' viewBox="0 0 32 32">
        <g clip-path="url(#clip0)">
            <path d="M7.77817 7.78335C3.48136 12.0802 3.48136 19.0429 7.77817 23.3397C12.075 27.6365 19.0377 27.6365 23.3345 23.3397C27.6313 19.0429 27.6313 12.0802 23.3345 7.78335C19.0377 3.48653 12.075 3.48654 7.77817 7.78335ZM21.412 13.7895C21.7067 13.7895 21.9451 14.0278 21.9451 14.3227L21.942 16.8036C21.942 17.0983 21.7036 17.3367 21.4088 17.3367L17.3127 17.3179L17.3284 21.4171C17.3284 21.7119 17.0901 21.9503 16.7952 21.9503L14.3143 21.9471C14.0195 21.9472 13.7812 21.7088 13.7811 21.4139L13.8 17.3179L9.70076 17.3336C9.40596 17.3336 9.1676 17.0952 9.16757 16.8004L9.16759 14.3164C9.16758 14.0216 9.40593 13.7832 9.70079 13.7832L13.8 13.8052L13.7843 9.70594C13.7843 9.41113 14.0226 9.17278 14.3175 9.17275L16.8015 9.17277C17.0963 9.17277 17.3346 9.41113 17.3347 9.70597L17.3127 13.8052L21.412 13.7895Z"/>
        </g>
    </symbol> 

    <symbol id='question' viewBox="0 0 22 22">
        <path d="M22 11C22 17.0765 17.0747 22 11 22C4.92529 22 0 17.0765 0 11C0 4.92707 4.92529 0 11 0C17.0747 0 22 4.92707 22 11ZM11.2952 3.63709C8.87796 3.63709 7.33631 4.65535 6.12567 6.46507C5.96883 6.69953 6.0213 7.01573 6.2461 7.18616L7.78518 8.35319C8.01604 8.52823 8.34494 8.48657 8.52431 8.25908C9.31666 7.25409 9.85999 6.67128 11.066 6.67128C11.9721 6.67128 13.093 7.25443 13.093 8.13313C13.093 8.79739 12.5445 9.13853 11.6499 9.64013C10.6065 10.225 9.22584 10.953 9.22584 12.7742V12.9516C9.22584 13.2456 9.46412 13.4839 9.75803 13.4839H12.242C12.5359 13.4839 12.7742 13.2456 12.7742 12.9516V12.8925C12.7742 11.6301 16.4639 11.5775 16.4639 8.16131C16.4639 5.58862 13.7953 3.63709 11.2952 3.63709ZM11 14.6371C9.87491 14.6371 8.95971 15.5524 8.95971 16.6774C8.95971 17.8025 9.87491 18.7177 11 18.7177C12.1251 18.7177 13.0403 17.8025 13.0403 16.6774C13.0403 15.5524 12.1251 14.6371 11 14.6371Z"/>
    </symbol> 

    <symbol id='refers' width="22" height="18" viewBox="0 0 22 18">
        <path d="M21.45 7.33871H19.25V5.12329C19.25 4.81867 19.0025 4.56944 18.7 4.56944H17.6C17.2975 4.56944 17.05 4.81867 17.05 5.12329V7.33871H14.85C14.5475 7.33871 14.3 7.58794 14.3 7.89255V9.00024C14.3 9.30486 14.5475 9.55409 14.85 9.55409H17.05V11.7695C17.05 12.0741 17.2975 12.3233 17.6 12.3233H18.7C19.0025 12.3233 19.25 12.0741 19.25 11.7695V9.55409H21.45C21.7525 9.55409 22 9.30486 22 9.00024V7.89255C22 7.58794 21.7525 7.33871 21.45 7.33871ZM7.7 9.00024C10.1303 9.00024 12.1 7.01678 12.1 4.56944C12.1 2.12213 10.1303 0.138672 7.7 0.138672C5.26969 0.138672 3.3 2.12213 3.3 4.56944C3.3 7.01678 5.26969 9.00024 7.7 9.00024ZM10.78 10.1079H10.2059C9.44281 10.461 8.59375 10.6618 7.7 10.6618C6.80625 10.6618 5.96062 10.461 5.19406 10.1079H4.62C2.06937 10.1079 0 12.1918 0 14.7602V16.2002C0 17.1176 0.739063 17.8618 1.65 17.8618H13.75C14.6609 17.8618 15.4 17.1176 15.4 16.2002V14.7602C15.4 12.1918 13.3306 10.1079 10.78 10.1079Z"/>
    </symbol> 

    <symbol id='save-icon' width="60" height="60" viewBox="0 0 60 60">
        <g clip-path="url(#clip0)">
            <path d="M54.6094 10.4298C54.6094 9.85669 54.1951 9.3678 53.6303 9.27396L51.1272 8.85648C43.7494 7.62692 36.687 4.60522 30.7031 0.117302C30.2866 -0.195351 29.7135 -0.195351 29.2969 0.117302C23.313 4.60522 16.2506 7.62692 8.87284 8.85648L6.36978 9.27396C5.8049 9.3678 5.39062 9.85669 5.39062 10.4298V19.3361C5.39062 31.4728 8.86963 43.008 17.449 51.6579C23.4352 57.6926 29.3765 59.7379 29.6265 59.8216C29.7473 59.8628 29.8737 59.883 30 59.883C30.1259 59.883 30.2522 59.8624 30.3736 59.8216C30.6235 59.7379 36.5648 57.6926 42.5505 51.6579C51.1318 43.0066 54.6094 31.4705 54.6094 19.3361V10.4298ZM52.2657 19.3361C52.2657 32.0267 48.4648 42.3181 40.969 49.9243C36.1959 54.7679 31.3577 56.918 30 57.4587C28.6405 56.9171 23.8033 54.7666 19.0311 49.9243C11.5352 42.3181 7.73438 32.0267 7.73438 19.3361V11.4222L9.25827 11.1686C16.7175 9.92536 23.8701 6.93707 30 2.50958C36.1299 6.93707 43.282 9.92536 50.7418 11.1686L52.2657 11.4222V19.3361Z" fill="#76C27E"/>
            <path d="M11.6954 26.2793C12.122 26.1035 12.4219 25.6837 12.4219 25.1953C12.4219 24.6162 12.0012 24.1347 11.4491 24.0408C11.3846 24.0294 11.3177 24.0234 11.25 24.0234C10.6032 24.0234 10.0781 24.5485 10.0781 25.1953C10.0781 25.8421 10.6032 26.3672 11.25 26.3672C11.4084 26.3672 11.5581 26.3351 11.6954 26.2793Z" fill="#76C27E"/>
            <path d="M48.9743 13.23C42.5126 11.9693 36.1725 9.39757 30.64 5.79176C30.2509 5.53816 29.7487 5.53816 29.3601 5.79176C23.7694 9.4374 17.6006 11.94 11.0243 13.2304C10.4745 13.338 10.0781 13.82 10.0781 14.3803C10.0781 14.3803 10.0818 20.1505 10.09 20.5327C10.1033 21.1713 10.6252 21.6798 11.2614 21.6798C11.2697 21.6798 11.2779 21.6798 11.2862 21.6794C11.9334 21.6661 12.4471 21.1301 12.4333 20.4832C12.4255 20.1179 12.4219 15.3357 12.4219 15.3357C18.6923 13.9917 24.5979 11.5829 30.0005 8.16573C35.3563 11.5472 41.3993 14.0118 47.5782 15.3366V19.3361C47.5782 36.9005 38.9324 48.1281 29.9945 52.3958C22.6607 48.8843 15.8482 40.618 13.4491 29.5158C13.3122 28.8832 12.6892 28.4818 12.0557 28.6182C11.4235 28.7546 11.0211 29.3785 11.158 30.0111C13.8075 42.271 21.5648 51.245 29.5217 54.7583C29.6727 54.8247 29.8339 54.8581 29.995 54.8581C30.158 54.8581 30.3209 54.8242 30.4729 54.7565C40.6087 50.2329 49.9219 37.8934 49.9219 19.3361V14.3803C49.9219 13.8191 49.5246 13.3371 48.9743 13.23Z" fill="#76C27E"/>
            <path d="M30 28.7109C28.0614 28.7109 26.4844 30.2879 26.4844 32.2266C26.4844 34.1652 28.0614 35.7422 30 35.7422C31.9386 35.7422 33.5156 34.1652 33.5156 32.2266C33.5156 30.2879 31.9386 28.7109 30 28.7109ZM30 33.3984C29.3536 33.3984 28.8281 32.8725 28.8281 32.2266C28.8281 31.5802 29.3536 31.0547 30 31.0547C30.6464 31.0547 31.1719 31.5802 31.1719 32.2266C31.1719 32.8725 30.6459 33.3984 30 33.3984Z" fill="#76C27E"/>
            <path d="M30 16.9922C26.7691 16.9922 24.1406 19.6207 24.1406 22.8516V24.0234H22.9688C22.3215 24.0234 21.7969 24.548 21.7969 25.1953V39.2578C21.7969 39.9051 22.3215 40.4297 22.9688 40.4297H37.0313C37.6785 40.4297 38.2031 39.9051 38.2031 39.2578V25.1953C38.2031 24.548 37.6785 24.0234 37.0313 24.0234H35.8594V22.8516C35.8594 19.6207 33.2309 16.9922 30 16.9922ZM26.4844 22.8516C26.4844 20.9129 28.0614 19.3359 30 19.3359C31.9386 19.3359 33.5156 20.9129 33.5156 22.8516V24.0234H26.4844V22.8516ZM35.8594 38.086H24.1406V26.3672H35.8594V38.086Z" fill="#76C27E"/>
        </g>
    </symbol> 

    <symbol id='screamer' width="24" height="25" viewBox="0 0 24 25">
        <g clip-path="url(#clip0)">
            <path d="M11.9998 0.613281C5.38278 0.613281 0 6.0185 0 12.6624C0 19.3062 5.38278 24.7114 11.9998 24.7114C18.6167 24.7114 24 19.3062 24 12.6624C24 6.0185 18.6167 0.613281 11.9998 0.613281ZM11.9998 23.1312C6.2508 23.1312 1.5738 18.4348 1.5738 12.6624C1.5738 6.88983 6.25074 2.19358 11.9998 2.19358C17.7488 2.19358 22.426 6.88989 22.426 12.6624C22.4261 18.4348 17.7487 23.1312 11.9998 23.1312Z" fill="#866EE8"/>
            <path d="M12.9844 15.2744H11.3516L11.1719 7.25098H13.1719L12.9844 15.2744ZM11.1172 17.7275C11.1172 17.4307 11.2135 17.1859 11.4062 16.9932C11.599 16.7952 11.862 16.6963 12.1953 16.6963C12.5286 16.6963 12.7917 16.7952 12.9844 16.9932C13.1771 17.1859 13.2734 17.4307 13.2734 17.7275C13.2734 18.014 13.1797 18.2536 12.9922 18.4463C12.8047 18.639 12.5391 18.7354 12.1953 18.7354C11.8516 18.7354 11.5859 18.639 11.3984 18.4463C11.2109 18.2536 11.1172 18.014 11.1172 17.7275Z" fill="#866EE8"/>
        </g>
    </symbol> 
    
    <symbol id='settings' viewBox="0 0 22 22">
        <path d="M19.3735 12.5568L21.2637 13.6479C21.4796 13.7725 21.5799 14.0302 21.5059 14.2682C21.0149 15.8491 20.1766 17.2774 19.0802 18.4636C18.9982 18.5524 18.8883 18.6107 18.7687 18.6288C18.6492 18.647 18.527 18.624 18.4223 18.5635L16.5335 17.4726C15.7388 18.1536 14.8252 18.6818 13.8385 19.0308V21.2123C13.8385 21.3333 13.7974 21.4506 13.7218 21.5452C13.6462 21.6396 13.5407 21.7055 13.4227 21.732C11.8722 22.0802 10.207 22.0982 8.57827 21.7324C8.33476 21.6776 8.16117 21.462 8.16117 21.2124V19.0308C7.1746 18.6819 6.26094 18.1536 5.46625 17.4726L3.57745 18.5635C3.47271 18.624 3.35054 18.647 3.23099 18.6288C3.11145 18.6107 3.00163 18.5524 2.91958 18.4636C1.82322 17.2774 0.984871 15.8491 0.493864 14.2682C0.419925 14.0302 0.520123 13.7725 0.735996 13.6479L2.62626 12.5568C2.4364 11.5277 2.4364 10.4724 2.62626 9.44322L0.736044 8.35209C0.520167 8.22752 0.41997 7.96984 0.493909 7.73183C0.984919 6.15092 1.82322 4.7227 2.91963 3.53647C3.00167 3.44765 3.11149 3.38938 3.23104 3.3712C3.35059 3.35304 3.47276 3.37607 3.5775 3.4365L5.4663 4.5274C6.261 3.84649 7.17467 3.31823 8.16124 2.96922V0.787724C8.16124 0.666735 8.20242 0.549349 8.27804 0.454884C8.3536 0.360418 8.45913 0.294499 8.57717 0.267974C10.1276 -0.0802101 11.7928 -0.0982184 13.4215 0.267664C13.665 0.322353 13.8386 0.53805 13.8386 0.787634V2.96917C14.8252 3.31817 15.7389 3.84642 16.5335 4.52736L18.4224 3.43645C18.5271 3.37602 18.6493 3.35299 18.7688 3.37116C18.8884 3.38933 18.9982 3.44761 19.0802 3.53643C20.1766 4.72265 21.0149 6.15088 21.506 7.73176C21.5799 7.96977 21.4797 8.22745 21.2638 8.35209L19.3735 9.44316C19.5634 10.4723 19.5634 11.5277 19.3735 12.5568ZM14.5482 11C14.5482 9.04344 12.9565 7.45161 10.9999 7.45161C9.0433 7.45161 7.45153 9.04344 7.45153 11C7.45153 12.9566 9.0433 14.5484 10.9999 14.5484C12.9565 14.5484 14.5482 12.9566 14.5482 11Z"/>
    </symbol> 

    <symbol id='shablon' width="22" height="19" viewBox="0 0 22 19">
        <path d="M19.9375 0H2.0625C0.923395 0 0 0.911403 0 2.03571V16.9643C0 18.0886 0.923395 19 2.0625 19H19.9375C21.0766 19 22 18.0886 22 16.9643V2.03571C22 0.911403 21.0766 0 19.9375 0ZM9.625 16.2857H2.75V5.42857H9.625V16.2857ZM19.25 16.2857H12.375V5.42857H19.25V16.2857Z"/>
    </symbol> 

    <symbol id='shop' width="22" height="19" viewBox="0 0 22 19">
        <path d="M19.8172 4.07143H3.4375C3.05766 4.07143 2.75 3.76777 2.75 3.39286C2.75 3.01795 3.05766 2.71429 3.4375 2.71429H19.9375C20.3173 2.71429 20.625 2.41062 20.625 2.03571C20.625 0.911403 19.7016 0 18.5625 0H2.75C1.23106 0 0 1.21507 0 2.71429V16.2857C0 17.7849 1.23106 19 2.75 19H19.8172C21.0212 19 22 18.0869 22 16.9643V6.10714C22 4.98453 21.0212 4.07143 19.8172 4.07143ZM17.875 12.8929C17.1157 12.8929 16.5 12.2851 16.5 11.5357C16.5 10.7863 17.1157 10.1786 17.875 10.1786C18.6343 10.1786 19.25 10.7863 19.25 11.5357C19.25 12.2851 18.6343 12.8929 17.875 12.8929Z"/>
    </symbol> 

    <symbol id='user' width="22" height="22" viewBox="0 0 22 22">
        <path d="M11 12.375C14.416 12.375 17.1875 9.60355 17.1875 6.1875C17.1875 2.77148 14.416 0 11 0C7.58395 0 4.8125 2.77148 4.8125 6.1875C4.8125 9.60355 7.58395 12.375 11 12.375ZM16.5 13.75H14.1324C13.1785 14.1883 12.1172 14.4375 11 14.4375C9.88281 14.4375 8.82578 14.1883 7.86761 13.75H5.5C2.46211 13.75 0 16.2121 0 19.25V19.9375C0 21.0761 0.923828 22 2.0625 22H19.9375C21.0761 22 22 21.0761 22 19.9375V19.25C22 16.2121 19.5379 13.75 16.5 13.75Z" fill="#D2D2D2"/>
    </symbol> 

    <symbol id='warn' width="22" height="22" viewBox="0 0 22 22">
        <path d="M22 11C22 17.0765 17.0747 22 11 22C4.92529 22 0 17.0765 0 11C0 4.92707 4.92529 0 11 0C17.0747 0 22 4.92707 22 11ZM11 13.2177C9.87319 13.2177 8.95971 14.1312 8.95971 15.258C8.95971 16.3849 9.87319 17.2984 11 17.2984C12.1268 17.2984 13.0403 16.3849 13.0403 15.258C13.0403 14.1312 12.1268 13.2177 11 13.2177ZM9.0629 5.88384L9.39194 11.9161C9.40734 12.1984 9.64067 12.4193 9.92338 12.4193H12.0766C12.3593 12.4193 12.5927 12.1984 12.6081 11.9161L12.9371 5.88384C12.9537 5.57895 12.711 5.32258 12.4057 5.32258H9.59434C9.28895 5.32258 9.04626 5.57895 9.0629 5.88384Z" fill="#FF8A8A"/>
    </symbol> 
</svg>